<svg version="1.2" xmlns="http://www.w3.org/2000/svg" viewBox="0 0 1274 1224" width="55" height="53">
	<title>score-ai</title>
	<style>
		tspan { white-space:pre } 
		.s0 { fill: #5b2903 } 
		.s1 { fill: #83c648 } 
		.s2 { fill: #4d985a } 
		.s3 { fill: #3e8b5e } 
		.s4 { fill: #f5a35b } 
		.s5 { fill: #318063 } 
		.s6 { fill: #7cbf4b } 
		.s7 { fill: #85c748 } 
		.s8 { fill: #69b051 } 
		.s9 { fill: #317f63 } 
		.s10 { fill: #58a156 } 
		.s11 { fill: #5ea554 } 
		.s12 { fill: #72b84e } 
		.s13 { fill: #91d244 } 
		.s14 { fill: #317f62 } 
		.s15 { fill: #75ba4d } 
		.s16 { fill: #67ae51 } 
		.s17 { fill: #4d975a } 
		.s18 { fill: #46925c } 
		.s19 { fill: #59a156 } 
		.s20 { fill: #5fa653 } 
		.s21 { fill: #c0773b } 
		.s22 { fill: #5ba355 } 
		.s23 { fill: #124933 } 
		.s24 { fill: #318062 } 
		.s25 { fill: #19563e } 
		.s26 { fill: #246a4f } 
		.s27 { fill: #632f07 } 
		.s28 { fill: #6f380e } 
		.s29 { fill: #784013 } 
		.s30 { fill: #8a4d1d } 
		.s31 { fill: #1c5a42 } 
		.s32 { fill: #c77433 } 
		.s33 { fill: #eb9750 } 
		.s34 { fill: #df8c47 } 
		.s35 { fill: #84491a } 
		.s36 { fill: #ed9a52 } 
		.s37 { fill: #96440c } 
		.s38 { fill: #b66325 } 
		.s39 { fill: #a55318 } 
		.s40 { fill: #97450d } 
		.s41 { fill: #f39f57 } 
		.s42 { fill: #47704c } 
		.s43 { fill: #b86628 } 
		.s44 { fill: #9e5d28 } 
		.s45 { fill: #a25015 } 
		.s46 { fill: #9c4910 } 
		.s47 { fill: #e2feba } 
		.s48 { fill: #b36124 } 
		.s49 { fill: #94d443 } 
		.s50 { fill: #b36024 } 
		.s51 { fill: #bd6a2c } 
		.s52 { fill: #ab591d } 
		.s53 { fill: #ab581d } 
		.s54 { fill: #bbe97d } 
		.s55 { fill: #dd8b46 } 
		.s56 { fill: #e08d48 } 
		.s57 { fill: #95440c } 
		.s58 { fill: #81b748 } 
		.s59 { fill: #b66426 } 
		.s60 { fill: #99470e } 
		.s61 { fill: #e6924c } 
		.s62 { fill: #d17e3c } 
		.s63 { fill: #d98642 } 
		.s64 { fill: #99480f } 
		.s65 { fill: #165039 } 
		.s66 { fill: #afe36b } 
		.s67 { fill: #aee36a } 
		.s68 { fill: #a2dc58 } 
		.s69 { fill: #aee26a } 
		.s70 { fill: #1b5941 } 
		.s71 { fill: #e5924c } 
		.s72 { fill: #99d74a } 
		.s73 { fill: #95d544 } 
		.s74 { fill: #aae063 } 
		.s75 { fill: #95d443 } 
		.s76 { fill: #88c65d } 
		.s77 { fill: #f7a35b } 
		.s78 { fill: #ec9851 } 
		.s79 { fill: #eb9850 } 
		.s80 { fill: #612e06 } 
		.s81 { fill: #dc8945 } 
		.s82 { fill: #af5c1f } 
		.s83 { fill: #562500 } 
		.s84 { fill: #6d360d } 
		.s85 { fill: #cf7b3a } 
		.s86 { fill: #d17e3d } 
		.s87 { fill: #d58340 } 
		.s88 { fill: #db8844 } 
		.s89 { fill: #c06e2e } 
		.s90 { fill: #d68340 } 
		.s91 { fill: #b66326 } 
		.s92 { fill: #6e380e } 
		.s93 { fill: #6e370e } 
		.s94 { fill: #763e12 } 
		.s95 { fill: #d78441 } 
		.s96 { fill: #5f2c05 } 
		.s97 { fill: #ac6830 } 
		.s98 { fill: #a05f29 } 
		.s99 { fill: #bc7338 } 
		.s100 { fill: #b46d34 } 
		.s101 { fill: #b46e34 } 
		.s102 { fill: #d98743 } 
		.s103 { fill: #da8744 } 
		.s104 { fill: #fae674 } 
		.s105 { fill: #de8c47 } 
		.s106 { fill: #e8954e } 
		.s107 { fill: #af5d20 } 
		.s108 { fill: #ca7737 } 
		.s109 { fill: #bc692b } 
		.s110 { fill: #d78440 } 
		.s111 { fill: #b05d20 } 
		.s112 { fill: #cd7c3c } 
		.s113 { fill: #bf6c2d } 
		.s114 { fill: #a05e29 } 
		.s115 { fill: #bb7338 } 
		.s116 { fill: #ce7b39 } 
		.s117 { fill: #ce7a39 } 
		.s118 { fill: #915321 } 
		.s119 { fill: #a55419 } 
		.s120 { fill: #c26f30 } 
		.s121 { fill: #f7a75c } 
		.s122 { fill: #f9d46d } 
		.s123 { fill: #f8c266 } 
		.s124 { fill: #f9ca69 } 
		.s125 { fill: #c37130 } 
		.s126 { fill: #985925 } 
		.s127 { fill: #f7a85c } 
		.s128 { fill: #f9d46c } 
		.s129 { fill: #c06d2d } 
		.s130 { fill: #985825 } 
		.s131 { fill: #aa581c } 
		.s132 { fill: #c06d2e } 
		.s133 { fill: #c1773b } 
		.s134 { fill: #965724 } 
		.s135 { fill: #a65419 } 
		.s136 { fill: #d88541 } 
		.s137 { fill: #c37030 } 
		.s138 { fill: #c57232 } 
		.s139 { fill: #9e4c12 } 
		.s140 { fill: #c57332 } 
		.s141 { fill: #a7551a } 
		.s142 { fill: #773f13 } 
		.s143 { fill: #9b4910 } 
		.s144 { fill: #894d1d } 
		.s145 { fill: #783f13 } 
		.s146 { fill: #a8561a } 
		.s147 { fill: #9a470f } 
		.t148 { font-size: 91px;line-height: 105px;fill: #672e0c;font-weight: 400;font-family: "FredokaOne-Regular", "Fredoka One" } 
		.t149 { font-size: 91px;line-height: 105px;fill: #ffffff;font-weight: 400;font-family: "FredokaOne-Regular", "Fredoka One" } 
	</style>
	<g id="Layer 1">
		<g id="&lt;Group&gt;">
			<path id="&lt;Path&gt;" class="s0" d="m627.4 1159c-7.7-3.6-16.5-4.8-23.2-10.5-3.8-7.3 1.4-10.6 6.6-12.8 24.5-10.2 48.5-21.6 72.9-32.1 30.4-13 60.3-27 91-39.4 3.7-1.5 6.5-3.8 9.1-6.6 6.6-2.5 13.2-1.9 20.1-1.4 21.9 1.8 44 3.2 63.1-11 14.2-10.6 21.4-26.5 29.1-41.8 4.6-9 6.7-19.8 16.6-25.5 12.4-1.6 24.2 2 36.1 4.6 2.1 0.5 3.7 1.8 4.5 3.9-14.8 11.2-23.3 27-31.5 43.1-8 15.8-15.1 32-25.2 46.8-14.5 21.2-35.2 28.8-59.4 29.2-16.6 0.2-33-1.9-49.5-3.2-25.4-2.1-48.2 5.4-69.3 19.7-15.3 10.4-30.2 21.9-47.3 29.4-6.2 2.8-12.5 5.1-18.7 7.6q-12.5 0-25 0z"/>
			<path id="&lt;Path&gt;" class="s1" d="m696.9 69c15.4 19.5 20 42.8 23.1 66.5 1.3 10.5 2.2 21 3.3 31.5-0.5 1-1.1 2.1-1.4 3.2-1.6 4.8-4.7 7.8-10 6.8-4.9-1-7.4-4.6-7.9-9.5-1.6-14.8-5-29.1-10.4-42.2-0.4 13.8 1.3 28.4-1.8 42.9-2 9.9-7.8 15.2-16.7 14.8-9-0.5-13.7-6.1-14.1-17-0.3-7 0.3-14-0.2-21.6-5.1 1.5-6.4 5.2-8.4 8.4-7 11-9.4 24.1-16.6 35.2-2.7 4.2 0.3 9.1 3.6 12.8 2.7 3.1 5.9 5.8 8.5 9 3.2 4 4.8 8.3 0.5 12.7-10.5 3.4-21.4 1.4-32.1 2.6-12.4-8-20.5-20.1-29.4-31.4-10.6-13.6-19.3-28.3-25.4-44.5-3.6-9.8-4.3-19.5-1.7-29.5 4.5-4.6 8.5-1.6 12.6 0.9 11.4 23.1 26.4 43.9 44.9 62.7 5.5-16.4 8.4-33.5 15.5-49.2 5-11 9.1-22.4 18.3-31.1 5.9-5.7 12.7-6.5 19.7-5.2 6.8 1.4 7.2 7.5 6.2 12.9-2.7 15.6-1.9 31.1 0.9 48.1 6.5-26.6 4.5-52.3 4.6-77.8 0-5.1 0.8-9.3 5.5-12q4.4 0 8.9 0z"/>
			<path id="&lt;Path&gt;" class="s2" d="m105.5 779.6c-5.8 2-11.5 4.2-17.4 6.1-6.3 2-12.2 2.1-16.4-4.3q0-4.4 0-8.9c23.5-28.9 57.8-40.6 91.7-56.3-12.6-4.5-23-8.1-33.4-11.9-3.3-1.2-6.7-2.4-9.1-5.2-5.5-6.4-2.6-15.2 5.8-17.2 4.3-1.1 8.8-1.3 12.7-3.7-0.6-7 4.4-7.8 9.5-8.5 5.5 1.4 11.1 2.9 16.9 1.5 2.3-0.6 4.5 0.5 6.4 2.1 4.9 5.8 1.4 11.9 0.4 17.8-2.4 4.4-7.6 4.8-11.3 7.8 4.1 1.9 7.5 4.7 11.7 5.8 4.7 2.4 4.6 7.6 6.6 11.5 2.7 4.9 6.1 9.6 4 15.6-3.1 5.3-8.7 7.1-13.8 9.2-17 7.1-32.9 16.2-48.8 25.6-5.9 3.6-8.7 10.6-15.5 13z"/>
			<path id="&lt;Path&gt;" class="s3" d="m1206.3 752.9c-4.8 3.9-10.1 4.3-15.9 2.7-6-1.6-12-3-18-4.5-17.2-13.3-37.1-18.9-58.6-19.5-5.3-0.1-10.6-0.7-14.9-4.6-2.1-6.8 0.1-11.9 6.3-15.4q0.6 0.2 1.3 0.4c5.5 3.3 11.6 1.5 17.3 1.7 18.1 0.3 35.9 2.6 53 8.4 11.7 3.9 22 10 29.5 20.1q0 5.4 0 10.7z"/>
			<path id="&lt;Path&gt;" class="s4" d="m615.2 222.2c11.1-2.8 22.3-1.7 33.5-1.6 6.2-3.3 11.6-0.3 17.2 1.9 18.6 12.1 36.7 24.8 55.7 36.1 5.9 3.5 12.1 6.2 19.1 6.8 17.9 4.6 36.1 2.6 54.2 1.7 4.1-0.3 8.2-1 12.3-0.6 11.4 0.3 23.1-1.7 34.2 2.8 2.5 0.1 5 0.4 7.3 1.3 4.9 4.1 12.1 5.4 15 12.1-0.2 6.7-5.7 8.5-10.4 10.8-30.5 15.2-60.8 30.8-91.3 45.9-39.3 19.3-78.1 39.9-117.5 58.9-26.1 12.6-52 25.6-78 38.5-4.9 2.5 21.3 16.4 17.1 20.7-2.2 1-7 20.6-9.4 20.4-27.1-2.2-66.5 13.4-74.1 39.2-0.7 2.3-8.2-32.8-9.8-30.9-3.2 2.5-6.9 4.3-10.6 6.2-4.3 0.1-7-2.1-8.5-5.9-1-4.1 1.7-7 3.1-10.4 2-4.8 8.6 41.9 3.3 38.5-2-6.4-3.4 3.7-9.2 3.2-10.7-0.9-6.6-3.6-16.9 0-18.1 6.4-27.7 19-18.4 35.7 1.5 2.6-16.1-55.1-14.6-52.6 1 4.2 5 7.1 5 11.8-3.4 4.4-6.2 9.3-10.9 12.7-29.7 14-59 28.9-88.5 43.3-3.3 1.5-6 3.7-9 5.5-17 1.8-34.1 1.7-51.1 0-5.3-0.5-10.6-0.7-15.9-0.5-4.2 0.1-7.6 1.8-9.5 5.4-3 5.5-7.3 10-10.6 15.1-0.6 2.9-3.1 4.9-4 8.2 4.6 1.6 10.2-2.3 13.9 2.5 0.9 5.2-3.1 7-6.3 9.5-6.9 5.4-16 7.3-21.7 14.9-5.1 6.7-9.3 13.5-11.3 21.6-1.3 5.2-3 10.2-6.1 14.6-5.2 7.1-11.8 9.2-19.9 6.2-2.5-3.1-0.4-6.3-0.3-9.5 5.5-16.4 16-29.9 25.7-43.9 1.6-2.4 3.6-4.5 4.5-7.4 7.3-10.1 12.5-21.4 17.2-32.9 2.5-6 2.8-12.7 2.8-19.1 0-10.9 1.6-21.8-0.7-32.6-0.9-3.5-1-7-0.5-10.6 0.2-4.6 0.3-9.3 0-13.9-0.7-11.4-1-22.8 1.7-34 3.7-11.7 8.9-22.4 19.2-29.8 8.2-9.8 19.3-15.2 30.9-19.7 5.2-3.3 11.3-5.1 15.9-9.4 1.2-5 5.3-6.7 9.2-8.8 10.2-5.3 21.1-9 30.9-14.9 4.3-3.6 7.8-7.9 11.3-12.2 11.5-17.7 19.2-37.5 29.8-55.6 5.3-10.5 10.7-21 20.7-28 7.6-9.7 17.8-14.9 29.6-17.5 2-0.5 3.9-1.4 5.6-2.5 7.9-2.4 16-2.5 24.1-3 15.4-1.1 30.6 1.8 46 2.2 2.9 0 5.8 0.5 8.8 0 2.9-0.6 5.8 1 8.8-0.1 16.3-1.3 30.7-7.8 44.3-16.8 14.3-9.4 28-20 43.5-27.4 4.5-2.2 8.8-3.7 13.6-2.1z"/>
			<path id="&lt;Path&gt;" class="s5" d="m615.2 222.2c-23.7 9.6-43.3 26.3-65.2 39.1-10.7 6.3-22.1 10.4-34.7 10.4-9.1-3.3-16.1-9.9-23.8-15.4-20.7-14.6-42.7-26.6-66-36.4-4.2-1.8-8-3.9-9.9-8.3-0.3-0.1-0.7-0.1-0.9-0.2-4.5-2.3-12.7-1-13-6.5-0.2-4.5 8-4.5 12-7.4 5.6-8.1 14.5-7 22.4-7.5 37.6-2.8 72.7 7.4 106.9 21.8 6.5 2.8 12.9 5.8 19 8.2 1.2-0.4 1.7-0.9 1.5-1.5-6.6-17.5-9.5-35.8-13-54-2.9-14.6-4.6-29.4 4.9-42.7 1.4-2.2 3-3.9 5.9-2.9-1.5 31.7 16.1 55.2 33.6 78.8 6.4 8.6 14.9 15.3 20.3 24.5z"/>
			<path id="&lt;Path&gt;" class="s6" d="m415.6 211.6c33.8 12.8 65 30.1 93 53.1 2.5 2.1 4.4 4.7 6.7 7q-4.6 0.1-9.1 0.1c-11.4-2.9-20.8-9.6-30.6-15.6-7.4-4.5-15.3-7.8-23.4-10.6-3.5-1.2-8-3.7-10.7-0.3-2.5 3.2 1.6 6.4 3 9.5 2.2 4.9 7.7 8.7 4.9 15.2-7.9 0.4-15.7 1.6-23.3 3.5-16.1-3.5-21.3-18-30-29.7-4.8 11.2-4 22.7-2.8 34 0.5 4.8 0.6 9.3-0.8 13.8-8.1 7.8-13.1 17.8-19.5 26.8-4.5 1.8-8.6-0.1-12.9-1.3-30.3-8.6-59.9-9.3-88 7.8-2.9 1.8-6.3 3.6-9.7 0.4-6.5-4-13.9-4.4-21.2-4.4-4.8 0-9-1-10.7-5.6-1.8-5-1.2-9.8 3.3-13.7 27.8-23.6 59.9-29.9 95.3-24.9 16.6 2.3 31.8 8.5 48.7 15.1-2.3-8.2-4.3-15.1-6.1-22-5.1-19.8-6.5-39.5 0.9-59.2 1.4-3.7 3.1-7 6.1-9.6 6.6-5.6 13.7-4.6 16.2 3.5 6 19.3 20 31.4 36.5 44.1-5.9-13.3-16.4-22.9-15.8-37z"/>
			<path id="&lt;Path&gt;" class="s7" d="m557.7 122.3c-9.2 20.2-5.2 40.6-0.4 60.7 3.6 15.1 9.1 29.8 14.3 46.2-50.5-23.4-100.9-44.8-157.9-31.7-8-3-15.9-6.1-23.9-9.1-4.8-1.8-9.6-3.5-10-9.9-0.3-6 3-9.4 7.8-11.7 12.3-5.9 25.2-9.8 39-10.6 41.5-2.6 80 8.9 117.5 25.2 2.4 1 4.7 2.3 8 1.4-5.6-21.6-14-42.8-11.7-65.7 7.5-3.9 11.7 3 17.3 5.2z"/>
			<path id="&lt;Path&gt;" class="s8" d="m226.8 466.4c-2.7 11.7-1.4 23.6-2.2 35.4-5.6 6.3-20.4 9.2-28.3 5.5-12.3-2.8-23.8-0.1-35.4 3.9-6.3 2.2-13.7 3.3-16.8-4.6-3.2-8 3-11.7 9.3-14.4 16.5-6.9 33.8-10.4 51.3-13.5 3.7-0.7 7.5-1.5 12.8-2.5-8.9-9.3-16.4-18.2-22.5-28.2-8.9-14.7-15.3-30-14.7-47.6 0.1-5.5 1.8-10.4 4-15.3 2-4.2 5.3-6.1 9.9-6.2 4.8-0.2 7.7 2.1 9.8 6.1 4.8 9.5 9.2 19.2 18.9 25.2 13.1 8.1 27 11.2 42.2 8.5 2.6-0.5 5.3-0.3 8-0.4-8.5 8.4-19.6 13.5-28.6 21.3-5.5 2.2-9.7-0.5-13.6-4-6.3-5.7-12.3-11.8-17-21-2.6 12.1 1 21.3 4.9 30.4 3 7 8 13.3 8 21.4z"/>
			<path id="&lt;Path&gt;" class="s9" d="m262.4 325.3c9-3.6 16.4-10.1 25.9-12.8 29-8.3 57.3-7.7 84.7 5.9-9.3 19.5-17.5 39.6-30.5 57.2-9.1-0.2-23.1-10.5-26.7-19.7-17.7-12.2-36.4-21.8-58.7-21.9 0.4-4.4 4.2-5.7 5.3-8.7z"/>
			<path id="&lt;Path&gt;" class="s10" d="m205 613.9c-9.9 16-21.3 31.1-29.5 48.2-6.6 9.7-16.2 11.9-27.1 10.7-3.7 0.6-7 2-9 5.4-3 0-5.9 0-8.9-0.1-5.4-0.3-11-0.3-12.3-7.4-1.2-6.9 1.7-11.6 8.4-13.5 13.3-3.9 24.4-11.5 35.4-19.6 6.7-5 11.9-11.5 18-17 4.4-4 3.5-6-2.2-7.2-15.9-3.5-30.8-10.2-45.7-16.5-4.1-1.7-8.3-3.5-10.5-7.8 3.4-8.2 12.2-8.5 18.6-10.6 19.5-6.5 39.2-13.9 60.4-12.9 7.1 0.3 15.6-0.4 18.1 7.8 2.7 8.7-5.5 12.3-11.3 16-8 5.1-16.5 9.1-26.1 11-6.4 1.2-12.3 0.9-16.2-1.1 9.3 1.8 20.1 5.7 31 9.4 3.3 1.1 7.1 1.5 8.9 5.2z"/>
			<path id="&lt;Path&gt;" class="s11" d="m224.6 515.9q0.2 5.3 0.4 10.7c-0.3 3.6-2.7 5.7-5.7 7.3-30.2 16.4-59.2 34.8-90.2 49.6-2.3 1.1-4.5 3.1-7.4 1.9-0.2-4.5-2.4-5.6-6.5-4-4.4 1.8-8.8 3.6-13.3 4.9-5.7 1.7-11.7 2.1-14.7-4.3-2.9-6.3 0.6-11.1 5.8-14.2 19.6-11.7 39.2-23.3 58.9-34.9 8.4-4.9 17.4-8.8 25-15.1 10.9-7.3 23.2-9.6 36-9.7 5.5 0 9.7 2.3 11.7 7.8z"/>
			<path id="&lt;Path&gt;" class="s9" d="m121.7 585.4c33.7-20.8 68.6-39.8 103.3-58.8 3.2 20.9 3.5 41.7-5.3 61.6-3.9 9.1-8.3 18-14.7 25.7-18.5-1.9-34.8-9.8-51-18.6 21.3 6.8 39.2-0.9 56.1-12.4 3-2.1 7.4-4.4 6.5-8.7-0.9-4.1-6-3.5-9.2-4.1-8.8-1.5-17.7-1.2-26.4 1.1-20 5.3-40.5 8.9-59.4 17.9-1.2-1.2-0.4-2.5 0.1-3.7z"/>
			<path id="&lt;Path&gt;" class="s12" d="m315.8 355.9q13.4 9.8 26.7 19.7c-3.6 4-5.2 9.8-10.8 11.9-16.1 4.3-32.9 1-49.1 4.1-5.5 1.1-10.9 2.2-16.3 3.7-3.1 0.8-6.3 2-9.2-0.5-6.2-3.5-13-3.3-19.8-3.6-6.1-0.2-12.4-1.4-13.7-8.7-1.2-6.9 3.3-10.9 9-13.7 14.3-7.2 29.5-10.4 45.3-11.3 12.7-0.7 25.4 2 37.9-1.6z"/>
			<path id="&lt;Path&gt;" class="s13" d="m557.7 122.3c-5.4-2.8-12.3-0.8-17.3-5.2-1.3-9.6 0.5-18.8 3.9-27.6 2.5-6.3 6.8-12.1 14.3-10.9 7.4 1.2 8.7 7.9 8.3 14.5-0.8 9.7 2.7 18.5 5.5 27.5-3.9 0.7-7.6 0.6-11.1-1.7q-1.8 1.7-3.6 3.4z"/>
			<path id="&lt;Path&gt;" class="s9" d="m257.1 394.8c24-10.9 49.2-10.2 74.6-7.3-13.8 8.1-28.3 14.7-42.7 21.4-11.5-5.9-24.3-6.9-37-9.2-0.1-3.6 3.4-3.4 5.1-4.9z"/>
			<path id="&lt;Path&gt;" class="s14" d="m224.6 515.9c-16.3-9.3-32-4.1-47.7 1.9-3.7-2-1.2-2.7 0.7-3.5 6.2-2.5 12.9-3.5 18.7-7q14.2-2.7 28.3-5.5 0 7.1 0 14.1z"/>
			<path id="&lt;Path&gt;" class="s15" d="m848.2 274.1c-1.9-0.5-4.1 0.2-5.4-2-3.4-2.5-5.4-5.9-6-10.2-2-13-3-25.8 4.8-37.6 0.5-0.7 1-1.4 1.5-2.1-0.5 0.8-1.2 1.6-1.7 2.4-8.1 14-19.7 25.7-27.1 40.2-1.4 2.7-4.3 3.8-6.9 5.2-22 3-44 3.6-66.1 0.4-1.3-0.2-2.6-1.1-3.8-1.7-21.8-9.5-40.1-24.6-60.3-36.6-4-2.4-7.8-5.3-12.7-6q-7.9-2.8-15.8-5.5c0.3-3.6-1.5-6.2-4-8.5-2.5-2.5-4.7-5.5-7.6-7.5-4.5-3.2-4.4-8.8-7.2-12.6-5.7-7.9 4-6.4 5.2-9.8 4-10.9 8.3-21.6 13.7-31.8 2.6-4.8 5.8-9 10.4-11.8 1.8-1.1 3.8-2.3 5.8-0.9 2 1.4 1.9 3.7 1.4 5.7-2.4 8.2-1.2 16.5-1.4 24.8-0.1 7.1 3.3 11 10.7 11.2 7.3 0.2 10.9-3.8 12-10.4 3.3-19.1 1.7-38.3 1.6-58.5 4.8 3.4 6.1 8.4 7.9 12.7 5.6 13.1 9.2 26.9 10.5 41.2 0.3 3.8-0.5 8.1 4.2 9.7 4.5 1.6 5.9-3 8.6-4.9 1-0.7 1.9-1.5 2.8-2.2 0.8 2.4-0.5 5.3 2.3 8.3 7.2-10.5 14.1-21 23.4-29.5 4.1-3.8 7.7-7.1 13.9-4.7 6.4 2.6 5.4 7.9 5.2 12.8-0.1 4.1-0.9 8.1-1.5 13.1 3.3-3.9 3.8-7.9 5-11.6 2-6.7 6.6-8.8 12.9-7.9 6.1 0.9 6.8 5.5 6.9 10.6 0.2 25.3 9.2 47.8 22 70.1 10.9-16.8 22.3-32.4 36.3-46 4.1-3.9 8.4-6.1 13.5-3.9 5.2 2.3 4.6-0.8 4.6-3.9 0-5 0-10-0.4-15.1-0.4-6.4 0.3-12.4 8-13.3 7.1-0.9 10.5 3.6 12.1 10.2 7.6 30.9 13.1 62.3 19.5 93.5 1.5 7.2 2.8 14.5 4.2 21.8 2.9-0.1 2.5-3.6 4.6-4.6 0.5 0.3 1.2 0.6 1.4 1 4.8 11.8-3.4 35.7-14.4 42.5-10-1.1-12.3-9.7-16.4-16.7-2.7-13.1-5.5-26.3-8-39.5-3.7-19.1-8.1-38-11-57.1-5.9 10.4-6.3 21.9-7.1 32.3 1.3-3.1-1.4-10 7.2-8.6 5.7 10.7 0.7 21.5-0.7 32-1.1 8.3-2.3 17.3-9.9 23.1-3.3 0.9-5.8-1.3-8.7-1.8z"/>
			<path id="&lt;Path&gt;" class="s16" d="m917.5 257.9c3.5-6.7 1.7-14 1.9-21 0.1-6.7 2.1-11.7 9.3-12.9 8-1.2 10.2 4.1 11.3 10.5 2.9 15.5-0.9 30.7-1.7 46-0.2 4.6-1.3 9.3-2.3 13.9-1.3 6.4 1.2 7.7 6.5 5.2 11.7-5.5 23.9-9.2 36.6-10.7 15.5-1.8 31.3-3 45.9 5.5 3.1 1.9 5.9 4 8.1 6.8 5.1 6.7 1.7 15.9-6.6 16.9-8 0.9-15.5 3.5-23.2 5.8-1.7 2.1-4 2.4-6.4 1.9-25.4-5.6-48.7 1.5-71.4 12-3.2 1.5-6.4 3.1-10.2 1.6-4.4-2.3-6.3-6.1-6.1-10.9 2.1-23.6 8.9-46.7 8.3-70.6z"/>
			<path id="&lt;Path&gt;" class="s17" d="m1063.8 507.2c-0.7 2.2-3.6 3.2-3.2 6.6 11.9 1.2 24-0.3 35.9 2.1 16.3 3.4 31.4 8.9 44.3 19.5 4.2 3.5 7.8 7.6 5.9 13.7-1.7 5.7-6.2 7.9-11.7 7.8-19.2-0.3-34.2 9.8-50.3 20 4.1 1.6 6.9-0.5 9.7-0.8 3-0.3 5.9-0.9 8.7-1.8 4.1-1.2 8.2-1.3 12.3-1.3 10.7 0.1 12 1.4 12.6 12.5 2.4 2.8 1.3 5.6-0.5 8-9.7 13.2-21.5 24.4-33.6 35.2-2 1.8-4.5 2.9-7.4 2.8-5.4-1.1-8-4.6-8.2-10 1.7-7 8.3-10.6 11.5-16.6 1.1-2 3.3-3.9 1.8-6.4-1.6-2.5-4.2-1.6-6.5-1.2-7 1-13.7 3.7-21 2.4-6.4-4.1-9.1-9.9-8.1-17.4 10-14.8 26.1-19.5 41.7-25.1 2.2-0.7 4.8-0.5 7.1-2.8-4.5-5.4-10.9-7.3-17-9.4-9-3-18.6-3.8-27.9-5.4-3.5-0.7-7-1.3-9-4.9-0.9-10.5-0.4-20.9 1.8-31.3q0.6-1.6 1.9-2.7c5.9-1.9 10.6-2 9.2 6.5z"/>
			<path id="&lt;Path&gt;" class="s18" d="m1142.2 571.2c5.1-3.3 7.6-8.9 11.3-13.5 3.6-4.3 7-9.1 13.9-7.4 7.2 1.8 7.8 8 8.2 13.3 1.7 18.5-0.2 36.6-6.8 54.2-11.8 32-31.1 59.1-53.4 84.3-3 3.3-4.6 7.8-8.9 9.9 0 0 0-0.1 0-0.1-2.2-1.5-3.2-3.8-2.5-6.2 2.8-10.1 1.3-20.4 1.6-30.7 14.2-23.5 29.2-46.7 33.6-74.8 1.5-9.6-1.1-19.6 3-29z"/>
			<path id="&lt;Path&gt;" class="s19" d="m1063.8 507.2c-0.8-5.2-4.6-5.5-8.7-5.4-3.3-3.9-2.4-7.3 1.2-10.5 11.5-12.9 16.2-28.8 17.9-45.4 1.6-16.5 0.9-33.2-6.8-48.7-1.8-3.8-0.8-6.8 1.4-9.9 2.6-3.6 4.8-7.5 5.6-11.9 1.1-5.9 4.5-8.8 10.4-8.9 5.9-0.2 9.1 3.2 11.2 8.3 12 29.9 11.1 59.6-2.5 88.7-7.5 16.1-15.8 31.9-29.7 43.7z"/>
			<path id="&lt;Path&gt;" class="s20" d="m987.2 336.2c-9 16.6-15.8 33.8-14.2 53.2 0.1 1.7 0.3 3.4 0.5 6.6 16.5-13.5 28.5-28.8 36.4-47.2 2.5-5.9 5-11.3 12.2-10.5 7.2 0.8 8.7 6.5 10 12.8 4.4 22.8-2 44-8.6 65.3-1.1 3.6-2.9 7.1-4.4 10.7-3.8 3.1-6.7-0.5-10-1.5-2.7-2.3-6.6-3.1-8.1-6.9-2.1-9.5 2.9-18.6 2-28.1-0.4-3.2 0-6.5-0.1-9.9-7.1 9.5-10.7 21.8-22.4 27.3-5.5 0.9-9.9-1.4-14.1-4.5-5.6-3.8-13.2-4.5-16.7-11.4q-0.6-1.3-0.7-2.7c-3.4-17.9 14.2-44.3 29.9-52.8 2.6-1.5 5.4-2.4 8.3-0.4z"/>
			<path id="&lt;Path&gt;" class="s9" d="m987.2 336.2c-21.7 11.4-33.4 29.4-35.7 53.6-4.4 1.5-7.5-1.2-9.9-4-9.4-11.6-19.1-23-24.7-37.2-1.4-3.4-3.7-6.9-0.7-10.6 13.9-7.2 28.1-13.6 43.6-16.3 14.7-2.6 29.2-3.1 43.5 2.2 1.6 2 5.7 2.6 5.1 5.6-0.8 3.6-4.7 2.5-7.5 3.2-4.6 1-9.2 2.3-13.7 3.5z"/>
			<path id="&lt;Path&gt;" class="s5" d="m1142.2 571.2c4.1 16.3 1.7 32.3-3.4 47.9-6.6 20.2-16.1 39.2-30.2 55.4-7.5-2.7-7.3-10.8-11.1-16.2-2.1-3.2-3.3-6.9-4.4-10.6-3.2-5.5-10.3-9.5-6.4-17.6 12.9-11.7 25.7-23.5 36.6-37.3 1.8-2.3 4.3-4.1 4.7-7.3 6.9-2.6 6.9-12 14.2-14.3z"/>
			<path id="&lt;Path&gt;" class="s21" d="m1010.3 423.1q4.4 2 8.8 4 2.7 1.7 5.3 3.5c5.9-1.1 8 2.5 9 7.4 14.9 13.4 22.4 30 21.5 50.2 0 1 0.9 2.1 1.4 3.1 0.7 3.6 0.3 7.1-1.2 10.5q-0.3 0.9-0.6 1.8c-1.3 1.6-1.8 3.8-3.3 5.2-3.7 3.9-8.3 5.8-13.5 3.3-5.8-2.7-7.5-7.6-7-13.9 1.5-17.8 0.7-35.2-6.4-52-2.6-6.1-6.2-11.3-10.9-15.7-2.2-2-4.8-3.8-3.1-7.4z"/>
			<path id="&lt;Path&gt;" class="s22" d="m1033.4 438q-4.5-3.7-9-7.4c12.8-11.3 27.3-20.5 38.7-33.4-5.7 16.8-16.7 29.5-29.7 40.8z"/>
			<path id="&lt;Path&gt;" class="s9" d="m917.5 257.9c1.1 24 0 47.7-5.2 71.2-8.2-2.5-12.4-10.1-10.9-19.6 9.8-12.5 15.6-26.4 14.4-42.6 0.4-3-0.4-6.3 1.7-9z"/>
			<path id="&lt;Path&gt;" class="s23" d="m953.3 986.4q-20.5-2.9-40.9-5.7c-3.9-0.2-7.3 3.6-11.4 1.1-13.7-1.6-27.2-4.6-40.9-6.6-2.9-1.5-6.1-2.2-9.4-2.4-17.7-1.1-24.3-13.3-22.1-29.2 0.3-1.8 0.8-3.5 1.2-5.2q0.8-3.3 3.9-4.4c1.2-0.1 2.7-0.1 3.2 1 5.7 13.6 18.6 12.6 29.9 14.7 32.6 6.2 65.4 11.2 98.1 16.8 34.4 5.9 68.8 12.3 103.4 17.2 8.2 1.2 16 1.3 21.6-6.3 6.4-8.8 2.6-17.8-1.4-25.2-12.5-23.2-24.9-46.4-38-69.2-1.7-2.8-3.7-5.5-1.9-9.1 7.8-6.3 12.8 0.6 18.3 4.2 2.4 1.6 3.5 4.7 5.6 6.7q26.9 45.9 53.8 91.9c3.5 6.1 7.5 12 7 19.7-0.7 10.7-10.6 19.2-21.3 17.4-51.8-8.6-103.6-17.4-155.4-26.2-1.1-0.2-2.2-0.8-3.3-1.2z"/>
			<path id="&lt;Path&gt;" class="s24" d="m1099.7 726.2c17 0.8 34 2.3 50.1 7.6 9.1 3 19.4 5.9 22.6 17.3-12.4 0.1-24.5 2.5-36.5 6.6 6.2 1.3 12.3 3 18.6 3.9 8.1 1.3 12.4 6.3 14.9 13.5 2.5 7.3 0.6 13.7-4.9 18.6-14.4 12.7-29.1 25-43.7 37.5-4.3-4.5-10.5-6.6-14.5-11.4-2.5-3-4.6-6.2-5-10.2 1.7-9.3 9.6-13.8 16-19.2 6.4-5.5 9.6-11.8 8.2-20.2-1.3-8.4-6.5-12.5-15.2-12.1-5.6-1.3-11.4-1.9-17.1-3.1-3.3-0.7-6.3-1.4-8.4-4.2-1.1-8.8 6.3-21.1 14.9-24.6z"/>
			<path id="&lt;Path&gt;" class="s25" d="m1072.5 884.8c-5.6 0.1-8.8-4.4-12.7-7.2-3.3-2.3-6.5-3.9-10.5-3.5-8.1-3.3-6.8-10.2-4-15.2 6.3-11.6 15.2-21.2 28.1-26 4 0.1 6.4 2.6 8.6 5.5 2.9 3.9 5.5 7.9 11 8.9 3.4 0.6 2.4 3.2 1.1 5.4-2.2 3.7-5.7 5.8-9 8.4-7.5 6-14 12.8-12.6 23.7z"/>
			<path id="&lt;Path&gt;" class="s26" d="m1094.1 852.7c0-0.6 0-1.7-0.1-1.7-10.7-0.4-14.1-9.6-19.7-16.2-0.4-0.8-0.9-1.8-0.5-2.5 5.8-10.9 15.3-17.9 25.9-23.6 1-0.6 2.2 0.3 3.1 1.2 5.4 4.1 7.5 11.9 15.6 13.4 2 0.3 2.3 5 2.4 7.9-9.2 6.8-16.6 15.8-26.7 21.5z"/>
			<path id="&lt;Path&gt;" class="s23" d="m326.6 986.4c-23 4-45.9 8.2-68.9 12.1-30 5.1-60 9.8-90 15-7.6 1.3-13.7-0.7-18.2-6.2-5.1-6-6.6-13.5-2.7-20.7 6.1-11.2 12.7-22.1 19.2-33.1 12.4-21.1 25.1-42.2 37.4-63.4 2.4-4.2 5-9 2.1-14.2 3.9-7.2 10.8-11.1 17.2-15.5 2.6-1.8 5.8-2.8 9-1.1 6.4 5.6 2.9 11.9 0.1 17-13.3 23.4-25.4 47.4-39.2 70.6-3.1 5.4-5.5 11.1-6.1 17.4-1.4 13.2 6.2 21.1 19.4 20 11.5-0.9 22.7-3.2 34-5.1 26.1-4.5 52.1-9.2 78.2-13.4 26.1-4.2 52.1-9.2 78.2-13.3 8.7-1.3 17.3-3.2 26-4.3 8.5-1 14.8-3.6 17.9-12 0.7-1.9 2-3.6 4.4-4 8.6 6 7.3 15 6 23.1-1.4 8.6-7.3 14.8-16.2 16.8-20.7 4.6-41.7 7.9-62.7 10.6-10.9 2.8-22.1 3.9-33.1 6-4.5 0.9-8.1-1.1-12-2.3z"/>
			<path id="&lt;Path&gt;" class="s27" d="m784.1 1059.5c-1.2 5.9-6.1 8-10.6 9.9-43.8 17.7-86.8 37.5-130 56.6-9.7 4.3-19.6 8.3-29.4 12.3-4.9 2-9.2 4.3-9.9 10.2-13.4-4.6-23.9-14-35.4-21.6-12-8-24.5-15.3-37.7-21.2-0.9-4.6 2.6-5.9 5.6-7.7 11.5-6.7 23.9-11.2 35.7-17.3 5-0.3 8.1 3.4 11.7 5.7 12.2 7.9 24.8 14.7 38.7 19.3 22.8 7.5 41.8-1.5 60.4-12.7 13.9-8.4 26.9-18.3 41-26.5 16.7-9.9 34.8-12.6 53.8-10.8 2.2 0.2 4.1 0.9 5.5 2.5q0.3 0.7 0.6 1.3z"/>
			<path id="&lt;Path&gt;" class="s28" d="m572.3 1082.1c-4.5 7.4-12.6 9.2-19.6 12.3-7.4 3.4-14.7 7-21.6 11.3-29-7.3-58.1 0.2-87.1-0.2-10.3-0.2-20.7-0.7-30.2-5.5-2.3-5.4 1.1-8.4 5.1-10.7 14.8-8.3 30.9-14.2 46.3-21.3 8.4-3.9 18.1-4.9 25.2-11.6 30.8-5.1 58.3 1.9 81.9 22.8q0.7 1.5 0 2.9z"/>
			<path id="&lt;Path&gt;" class="s5" d="m105.5 779.6c4.5-14 17.5-18.6 28.3-25.1 15.3-9.3 31.8-16.6 48.6-23.1 8.7 1.9 13.7 9.5 12.5 19.2-4.6 5.5-11.6 4.1-17.6 5.8-3 0.9-6.3 0.8-9.3 1.8-7.5-1.1-11.4 3.4-14.2 9.3-2.9 6.3-1.4 12.3 2.8 17.3 5.2 6 10.8 11.7 17.1 16.5 3.3 2.6 6.3 5.4 6.8 9.9-3.3 7.2-17 18-23.3 18.4-11.4-9.7-24.5-15.7-38.6-20.7-11.8-4.2-14.3-11.9-10.6-23.9 0.9-2.9 0.5-4.6-2.5-5.4z"/>
			<path id="&lt;Path&gt;" class="s29" d="m490.3 1059.5c-5.9 6.6-14.5 8.3-22 11.7-15.8 7.1-31.8 13.7-47.4 21.4-3.5 1.7-5.6 4.1-7.1 7.4-13.8-3.4-22.8-12.9-30.4-24-7.6-10.9-14.1-22.4-19.3-34.6 7.2-9.2 17.7-11.9 28.4-14.3 3 0.5 4.3 3 5.8 5.2 13.4 19.1 33.2 24.2 54.9 25.3 9.1-1.1 18.2-0.3 27.2-1.9 3.7-0.6 7.8-0.4 9.9 3.8z"/>
			<path id="&lt;Path&gt;" class="s30" d="m392.4 1028.9c-9 5.3-18.4 9.4-28.3 12.5-6.7-14.2-13.5-28.2-23.2-40.7-4.2-5.4-9.2-9.9-14.3-14.3q22.2-3.5 44.4-7.1c4.9 2.8 7 7.6 8.5 12.6 1.7 5.9 4.3 11.3 7.1 16.7 1 4.8 3.4 8.9 5.4 13.1 1.2 2.4 2.9 4.7 0.4 7.2z"/>
			<path id="&lt;Path&gt;" class="s26" d="m157.2 829.6c6.5-6.8 13.8-12.6 21.4-18.1 1.7-1 3.7-0.9 5.1 0.1 9 6.1 17.8 12.5 23.1 22.5-1.9 10.4-12.9 19.3-22.9 18.6-9.1-7.4-19.1-13.9-26.7-23.1z"/>
			<path id="&lt;Path&gt;" class="s31" d="m183.9 852.7c5-8.4 17.7-7.6 21.1-17.8 2.7-0.8 5.4-0.5 7.5 1.4 5 4.6 10.5 8.6 15.2 13.4 2.7 2.7 5.2 6 2.2 10.1-8.4 4.9-14.7 13.2-24.4 16.1-1.6-8.9-10.1-11.7-15.4-17.2-1.9-2.1-4.8-3.3-6.2-6z"/>
			<path id="&lt;Path&gt;" class="s32" d="m901.8 978.9c3.5 1.1 7.5-1.4 10.6 1.8-9 13.2-13.5 28.6-21.7 42.2-9.6 16.1-21 29.8-40 35.1-15.6 4.3-31.5 3.8-47.3 2.4-6.5-0.6-12.9-1-19.3-0.9 0 0 0.2-0.5 0.2-0.5-3.5-5.7 2-7.7 4.5-10.9 5.2-2.3 10.4-1.1 15.7-0.6 20.8 2 41.1 0.5 58.1-13.6 8.5-7.1 14-16.8 19.3-26.3 3.9-7 7.2-14.4 10.9-21.5 2-3.7 3.9-7.4 9-7.2z"/>
			<path id="&lt;Path&gt;" class="s33" d="m173.5 671c10.8-0.7 17-6.3 20-16.7 2.4-8.3 4.8-16.5 10.2-24.1 6.9-9.9 17.5-13.5 26.6-19.7 2.4-1.6 5.4-2.4 7-5.2 1.4-3.2 4.3-3.8 7.3-4 17.8-1 35.5-2.4 53.2-3.6 34.9-2.5 69.6-6.2 104.2-11.3 3.6-0.6 8.1-0.7 8.2-6.2-0.9-5-5.1-4.4-8.4-4.7-8.3-0.6-16.6 0.6-24.9 1.1-17.4 1.1-35 0.6-52.5 0.2-3.7 0-8 0-8.7-5.3 1.2-2.5 3.1-4.4 5.5-5.6 28.1-13.9 55.6-28.8 84.5-40.9 1.9-0.8 3.9-1.2 5.9-1.8 5.5 2.6 1.8-13.8 6-10.4 0.9 5.4 7.3-1.2 12.6 0 15.8 3.6 24.8-0.7 39.3-8.3 13.7-7.1 17.8 9.3 8.1-2.7-2.2-4-0.8-5.6 1.9-10.5 0.8-5.1 4.6-5.6 8.7-5.5 3.3 0.8 4.8 3.3 5.4 6.2 1.8 8.5 6.9-7.8 11.5-0.8 121.4-110 66.7-8.3 76-0.4 4.5 0.8 0.8 33.4 4.5 37.6 1.3 6.2-36.1 18.8-40.3 20.4-24.3 9.5-46.9 22.4-70.3 33.6-11.6 5.5-24.2 9.4-33.7 18.8-19.3 4.3-39.2 4.7-58.8 7.4-19.2 2.6-38.5 5.1-57.7 8.5-6.7 1.1-13.6 0.6-20.2 2.6-14.9-0.9-29.2 2.5-43.4 6.7-10.6 3.1-15.9 10.5-16.2 21.7-0.2 6.5 1.7 12.8 2.8 19.2 0.7 4 1.9 8.1 0.7 12.3-11.6 12.1-25.3 19.8-42.3 21.2-1.9-0.8-2.8-2.5-3.6-4 0.7 2.8 4.6 4.5 3.9 8.2-7.9 9.1-18.5 11.7-29.9 12.4q-2.4-5.4-4.8-10.8c-4.5-4.1-6.7-8.6-2.4-14.2q0.9-8.9 1.8-17.9c-0.5-2 0.4-3.1 2.3-3.5z"/>
			<path id="&lt;Path&gt;" class="s34" d="m176.6 717.4c8.1-7.4 19.5-7.2 28.4-12.6 2.3-0.2 4.2 0.7 5.3 2.6 6 10.4 13.8 19.6 20 29.8 1.6 2.7 2.5 5.4 0.2 8.1-2.6 2.8-6.4 2.3-9.6 3.5-5.9 1.4-11.8 2.6-17.9 3.1-3.2 0.2-6.3 0.5-8.4-2.8q-6.1-8.8-12.2-17.7-2.9-7-5.8-14z"/>
			<path id="&lt;Path&gt;" class="s5" d="m169.4 692.4q1.2 7.1 2.4 14.2c-7.5-1-14.3-3.8-21.6-8.9 6.9-3 13-4.4 19.2-5.3z"/>
			<path id="&lt;Path&gt;" class="s5" d="m173.5 671q-1.2 1.7-2.3 3.5c-7.6-0.7-15.4 1.9-22.8-1.7 10.1-0.9 18-7.2 27.1-10.7q-1 4.4-2 8.9z"/>
			<path id="&lt;Path&gt;" class="s35" d="m1099.7 726.2q-7.3 11.5-14.5 22.9c-2.3 3.7-5.7 3.4-9.4 3-6.2-0.8-12.3-1.8-18.3-3.2-2.6-1.2-5.8-1.1-7.9-3.4-3.5-5.4 0.2-9.5 2.7-13.6 7-11.2 15.1-21.6 21.3-33.2 0.7-4 4.8-6.5 4.4-10.8 2.9-9.9 6.1-19.7 3.6-30.3-0.6-2.8-0.1-5.9 1.7-8.5 3.4-3.9 7.4-5.2 12.3-3 4.9 9.2 10.2 18.3 13 28.4 3.1 12.7 0.9 25.1-2.1 37.4q-3.4 7.2-6.8 14.3z"/>
			<path id="&lt;Path&gt;" class="s36" d="m550.9 440.9c6.3-6.7 15.4-8.6 23.1-12.6 32.6-16.8 65.5-32.8 98.5-48.7 39-18.8 77.2-39 116.2-57.7 23.5-11.3 46.6-23.4 69.8-35.5 1.5-0.8 2.6-2.2 4-3.4 1.7-1.4 3.4-0.8 4.7 0.3 9.9 8.6 16.8 19.4 22.3 31.1 0.6 1.3 0.1 2.9-0.4 4.3-1.5 3.1-4.3 4.7-7.3 6.2-40 19.4-79.4 39.8-119.4 59.1-38.2 18.4 159.8 81.7 122.8 102.4-8.3 1.6-172.6 63.8-181 64.2-18.9 0.8-91.8-2.6-97.9 15.5-1.1 3.1-46.5-57.3-49.7-55.6-2.4 1 17.5-32.4 15.6-33.9-2.3-2.5-2.4-5.6-1.5-8.4 1.1-3.8-0.4-6.2-2.8-8.6-1.6-5.4-5-9.1-10.2-11.4-3.1-1.4-6.7-2.8-6.8-7.3z"/>
			<path id="&lt;Path&gt;" class="s37" d="m315.7 571.5c2.7 2.6 6.1 1.4 9.3 1.5 25.9 0.8 51.8-0.7 77.6-1.7 6.4-0.3 12 0.8 12.7 8.7-3 3.9-7.2 4.7-11.8 5.1-43.5 3.2-87 6.7-130.5 9.9-12.6 0.9-25.3 1.9-37.9 2.8-3.8 0.3-7.9 0.5-10.4-3.4 4.3-7.3 8.7-14.5 12.8-21.8 2.3-4 6.1-3.4 9.4-3.1 22.9 2.1 45.9 1.5 68.8 2z"/>
			<path id="&lt;Path&gt;" class="s38" d="m224.7 594.4c43-3.4 85.9-7.4 128.8-10 20.6-1.2 41.1-3.8 61.8-4.4 0.6 9.1-6.5 9.9-12.5 10.6-21.6 2.7-43.2 5.6-64.9 7.7-33.5 3.1-67 5.8-100.6 7-4.6 0.6-9.2 1.2-13.8 1.6-1.9 0.1-4.5 0.9-5.6-1.2-1.1-2 0.6-3.8 1.9-5.3 1.7-2 2.2-4.9 4.9-6z"/>
			<path id="&lt;Path&gt;" class="s9" d="m449.4 270c-4.7-7.9-9.3-15.8-13.9-23.8-2.6-4.4-1.2-5.9 3.9-6.3 10-0.9 18.8 3 27.1 7.2 14 7 27.8 14.4 39.7 24.7-19 1.7-37.9-1.9-56.8-1.8z"/>
			<path id="&lt;Path&gt;" class="s9" d="m392.5 291.6c-5.9-19.4-5.8-38.5 3.7-59.7 6.3 18.4 17.4 30.6 29.8 41.6-12.3 3.8-24.2 8.7-33.5 18.1z"/>
			<path id="&lt;Path&gt;" class="s9" d="m226.8 466.4c-12.3-17.9-22.9-36.3-13.6-59.4 7.8 13.8 16.5 26.1 31.3 32.6-7.5 7.8-13.7 16.6-17.7 26.8z"/>
			<path id="&lt;Path&gt;" class="s9" d="m807.4 270c10.2-21.1 24.1-39.4 41.7-55.3-12 18.2-11.6 37.6-6.2 57.4-11.8-1.5-23.6-2.1-35.5-2.1z"/>
			<path id="&lt;Path&gt;" class="s39" d="m887.6 318.3c-5.8-13.6-12.7-26.4-25.1-35.3q-7.2-4.4-14.3-8.9c2.5-0.7 4.8 0.2 7.1 1.2 2.6-1.3 5.3-2.3 8.1-0.7 17.1 12.8 30.2 28.7 39 48.3 6.5 14.5 13.4 28.9 22.6 42.1 1.9 2.6 3.7 5.4 2.5 9-1.3 2.3-3.3 3.2-5.8 3-13.4-7.5-18.6-21-24.9-33.8-2-5.2-5.6-9.6-7.8-14.7-1.5-3.4-2.5-6.6-1.4-10.2z"/>
			<path id="&lt;Path&gt;" class="s40" d="m664.5 226.1c7.3-1.3 12.2 3.9 17.5 7.2 18.6 11.6 37 23.6 55.5 35.5-14.7-4-26.6-13.2-39.1-21.2q-16.9-10.7-33.9-21.5z"/>
			<path id="&lt;Path&gt;" class="s9" d="m862.6 277.7c-2.2-1.8-4.7-2.2-7.3-2.4 8.1-17.4 10.7-35.8 10.7-54.7-5.2-4-3.6-9.3-2.7-14.4 0.6-3.6 1.2-7.4 2.7-10.8q0-4 0-7.9c10.4 35.2 18.5 70.8 23.6 107.1-3.1 1.1-5.3-0.4-7-2.6-5.2-6.9-12.7-10.5-20-14.3z"/>
			<path id="&lt;Path&gt;" class="s41" d="m862.6 277.7c11.7 1.3 19.3 9 27 16.9 4.9 4.2 7.9 9.9 11.8 14.9q5.5 9.8 10.9 19.6 2 4.4 3.9 8.9c7.2 15.9 15.3 31.3 26.4 44.9 2.6 3.1 6.2 4.3 8.9 6.9q0.8 1.3 1.6 2.6c-10.3 2.2-24.2-7.9-26.2-19-12-13.4-19.1-29.8-26.7-45.7-9.3-19.3-19.7-37.4-37.6-50z"/>
			<path id="&lt;Path&gt;" class="s42" d="m866 195.4q0 12.6 0 25.2c-1.7 5.7-3.4 11.5-5.7 19-5.3-17.1-3.7-31.2 5.7-44.2z"/>
			<path id="&lt;Path&gt;" class="s43" d="m1085.2 649.6c2.5 14 1.7 27.7-3.6 41-4 2.9-8.4 4.4-13.2 4-11.4-1.2-22.7 2.5-34.1 0.1-4.5-3.3-4.6-7.8-3.7-12.8 1.6-8.7 3.5-17.4 5-26.1 3-16.8-3.9-27.1-20.3-30.7-8.8-1.9-17.4-5.5-26.8-3.5-2.6-0.2-5.1-0.8-7-2.7-4.5-7.8 0.5-12.1 6.3-15.7 10-6.2 21.3-10.2 31.6-15.9 9.5-5.4 10.2-5.8 6.8-16.6-5-15.9-8.9-32.1-6.9-48.8 1.3-11.4 0.3-23 3-34.3 0.2-17.7-0.9-35.2-11.4-50.5-2.4-3.4-4.9-6.6-8.1-9.2-1.6-1.3-3.2-1.4-5.1-0.9-48.3 14.1-97.6 24-147.1 33.2-4.1 0.8-8.3-0.3-12.2 1.3-3.8 0.7-6.9-1-10.1-2.6-21.7-10.4-42-9-60.7 7.1-2 1.8-4.1 3.4-7.1 2.3-3.1-2.8-2.2-7.4-4.7-10.4-1-3.5-1.9-7-0.4-10.6 2.5-5.8 8.2-6.3 13.3-7.3 41.1-8.5 82-17.5 123.2-25.9 18.5-3.8 37-7.5 55.5-11.4 6.7-1.4 13.4-1.9 20.1-2.1q6.3 2.5 12.5 5.1c10.2-0.4 17.7 4.1 23.1 12.5q3.6 2.4 7.2 4.9c5.6 7.4 13.2 12.9 17.4 21.8 7.9 16.8 8.1 34.3 7.2 52-0.2 4.6-1.3 8.7 3.1 11.9 4.8 3.5 7.6-0.8 11-2.5q2.8-1.3 5.5-2.7c0.7 10.7 0.6 21.4-1.2 32.1 4.6 4.2 3.8 9.4 2.8 14.6-17.3 17.3-13.2 19.5-2.7 36.9 7.8 13.2 16.6 25.8 24.7 38.8 4.4 7.1 10 14.2 7.1 23.6z"/>
			<path id="&lt;Path&gt;" class="s5" d="m1052.8 551.6q0.2-7.9 0.5-15.9c20.5 1 40.6 3.3 57.4 17 1.4 1.2 4.2 1.8 3.2 4.5-0.8 2-3 1.4-4.7 1.6-19.1 3.2-35.7 11.8-50.9 23.3-6.6-3.2-10.9-16.9-8.1-25.9 0.5-1.7 1.5-3.1 2.6-4.6z"/>
			<path id="&lt;Path&gt;" class="s44" d="m1052.8 551.6c0.8 10.4 0.6 20.9 5.5 30.5 0.6 6.1 3.7 11.1 7.1 16 9.1 5.1 14.2 12.7 14.3 23.3q3.5 4.3 7 8.7 4.4 8 8.9 16-5.2 1.8-10.4 3.5c-9.5-25.2-26.9-45.7-40.4-68.5-8-13.7-5.8-22.3 8-29.5z"/>
			<path id="&lt;Path&gt;" class="s5" d="m1079.7 621.4c-5.3-7.5-10.4-15-14.3-23.3 7.7-3.1 15.8-4.7 24-5.3 8-0.7 10.2 3 6.5 10.2-3.9 7.4-9.5 13.4-16.2 18.4z"/>
			<path id="&lt;Path&gt;" class="s37" d="m967.5 400.6c-2.4 3.8-6.7 3.7-10.3 4.4-63.7 13.3-127.4 26.5-191.1 39.7-3.3 0.6-6.4 1.1-8.7 3.8q-2.9 1.6-5.9 0.3c-8.7-3.4-17.3-4.2-26.4-0.7-4.3 1.6-8.9 1-9.2-5.5 1.8-4.5 6.3-5.1 10.1-6.2 35.9-10.3 71.7-20.7 107-32.8 25.2-8.7 50.4-17.4 75.2-27.1 4.2-1.7 8.3-3.1 12.8-1.3q3-0.9 5.9-1.8c8 7.3 15.9 14.7 26.2 19q7.2 4.1 14.4 8.2z"/>
			<path id="&lt;Path&gt;" class="s9" d="m1003.1 418.2c-8.2-3.1-15.6-8-23.1-12.5 10.3-10.3 17.1-23.1 24.5-35.8 3.9 16.4 2.2 32.4-1.4 48.3z"/>
			<path id="&lt;Path&gt;" class="s45" d="m832 938.1c1.5 8.4-2.5 17.7 4.8 25.2 6.8 7 16.3 5.1 24.1 8.6-0.4 3.5-3.2 4.6-5.9 5.9-38.1 18.2-76.2 36.5-113.8 55.9-41.8 21.6-83.9 42.3-126.3 62.6-1.1 0.5-1.8 1.6-2.9 2.1-4.3 2.2-7.9 0.1-11.5-1.9-8.7-4.8-16.9-10.4-25.3-15.8-8.9-7.6-19.8-12.3-29.2-19.3-6.4-9.4-5.6-14.2 4.8-19.6 14.4-7.5 29.1-14.5 43.6-21.7 24.2-11.9 48.3-23.8 72.4-35.9 16.9-8.5 33.8-16.9 50.9-24.9 7.7-3.6 11.1-11.3 18.4-14.8 16.9-6.5 34.7-9.2 52.2-13.2 12.1-2.9 24.1-5.8 36.3-8.3 3.8-0.8 7.5-1.8 11.2 0.1 1.2 1.2 1.5 2.6 1.3 4.2-0.3 1.5-1.1 2.7-2.2 3.6-19.8 7.3-40.8 9.2-57.9 12.9 12.8-2 28.9-5.7 45.2-7.9 3.5-0.4 7.2-1.4 9.8 2.2z"/>
			<path id="&lt;Path&gt;" class="s46" d="m611.3 1096.8c0.6-2.6 2.4-4 4.6-5 28.7-14 57.5-27.7 86-41.9 18.8-9.3 37.2-19.6 55.9-29 29.2-14.9 58.6-29.5 88-43.9 4.8-2.3 10.1-3.4 15.1-5.1 13.9 0.7 27.4 3.8 40.9 7-7.2 13.2-14.2 26.5-21.6 39.6-18 32.1-47.5 35.9-78.4 32.8-4.1-0.4-8.2-0.5-12.3-0.8-5.9 3.5-12 3.4-18.8 2.8-20.2-1.7-38.5 4.5-55.5 15.4-17.4 11.1-33.8 24.1-53.1 32.1-14.5 6.1-29.2 6.9-44.3 3-3.6-0.9-6.9-2.3-6.5-7z"/>
			<path id="&lt;Path&gt;" class="s47" d="m833.7 929.2q1-0.9 1.9-1.7c2.6 0.5 4 2.3 4.8 4.8 2.4 6 7.8 7.9 13.4 8.9 49.6 8.2 99.2 16.9 148.8 25.2 19.2 3.2 38.5 6.7 57.7 9.8 7.5 1.2 15.5 2.2 20.1-5.4 4.4-7.2 2.8-14.5-1.2-21.9-12.8-23.7-25.8-47.3-38.5-71.1-8-15.1-4.9-25.3 7.8-36.7 16.9-15.3 33.9-30.5 50.5-46.1 1.7-1.7 3.3-3.5 5.2-5 11.8-9.8 13-14.2 7.7-29.2-0.7-2-1.2-3.9 0.1-5.9 9.2-1.2 14.4 4.2 17.2 11.7 3.3 8.7-0.9 21.2-8.7 26.4-7 4.6-12.3 10.8-17.7 16.9-10.6 7-20 15.4-28.5 24.9-9 4.1-14.7 12.3-21.8 18.6-5.3 4.6-8.3 12.9-3.2 20.7 7.3 13.4 14.5 26.8 21.8 40.2 7.9 14.5 15.9 28.9 23.7 43.3 4.7 8.6 3.3 16.6-2.6 24.3-5.8 7.5-14 7.2-21.7 5.8-27-5.1-54.1-9.6-81.2-14-26-4.2-51.8-9.2-77.7-13.7-18.2-3.2-36.4-6.9-54.8-9.1-11.1-1.4-19.1-5.1-22.5-16.3-1.9-1.6-1.8-3.4-0.6-5.4z"/>
			<path id="&lt;Path&gt;" class="s48" d="m833.7 929.2q0.3 2.7 0.6 5.4-1.2 1.8-2.3 3.5c-24.1 4.3-48.3 7.5-72.8 8.9 24.6-7 49.1-14.3 74.5-17.8z"/>
			<path id="&lt;Path&gt;" class="s49" d="m1112 754.9c11.9 14.9 10.1 26-5.2 38.2-7.8 6.2-14.6 13.6-22.1 20.3-12.7 11.5-25.1 23.3-38.2 34.4-7 5.9-8.9 14.8-4.2 23.7 13.2 25.3 26.4 50.6 40.6 75.5 5.1 8.9 5.9 17.4 1.5 25.9-4.9 9.6-14.8 9.2-23.6 7.7-53.7-9.1-107.4-18.7-161.2-27.9-15.9-2.8-31.9-4.8-47.8-7.6-6.8-1.2-13.2-3.9-14.4-12.2 2.5-4.6 7-4.1 11-3.6 34.1 3.9 68.3 7.3 102.1 13 11.7 2 23.4 3.9 35.1 5.6 18.5 2.7 28-4.1 31.7-22.3 11-55.5 21-111.2 32.1-166.6 1-4.9-0.6-12 7.4-13.3q14.2 1.7 28.4 3.4c8.6 3.5 18.2 2 26.8 5.8z"/>
			<path id="&lt;Path&gt;" class="s50" d="m383.4 1009.4c-6.6-9-8.9-19.8-12.4-30.1q30.2-5.4 60.4-10.8c10.4-1.9 16.7-9.2 16-19.5-0.4-5.5-2-10.8-3.1-16.2-2.2-0.8-3.2-2.6-4.3-4.5-1.7-6.3-3.1-12.6-0.5-19 6.7-5.8 15.2-4.4 22.9-5.1 45.7-4.2 91.5-7.2 137.5-8 20.2-0.3 40.3-1.1 60.5-1.2 4.3 0 9-0.6 12.7 2.7 3.6 4 2.2 7.5-1.1 10.8-1.5 1.5-3.2 2.7-5.1 3.6-31.7 15.4-62.8 32-95 46.5-32.2 14.3-63.3 31.1-94.7 47.1-20.6 10.4-41.5 20.3-62.4 30.1-8.6 4.1-14.4-2.3-19.7-8.2-5-5.3-7.9-12-11.7-18.2z"/>
			<path id="&lt;Path&gt;" class="s47" d="m443.8 927.5q0.2 2.7 0.5 5.3c-2.7 16.7-16.2 17.6-28.8 19.6-30.9 4.7-61.7 10.1-92.4 15.8-29.7 5.4-59.5 9.7-89.3 14.5-8.5 1.4-17 3.1-25.6 4.8-8.1 1.6-16.1 0.9-21.8-5.5-6.4-7.2-6.4-16.5-2.2-24.6 14.3-27.1 29.4-53.8 44.1-80.6 3-5.4 6-10.9 1.6-17-5.1-11.5-16.8-16.4-24.9-24.9q-13.2-11.7-26.4-23.4c-8.2-7.9-16.5-15.8-24.8-23.7-6-5.8-7.1-13.2-4.6-20.3 2.6-7.2 7.8-13 16.9-12.5 2.2 3.7-0.1 6.8-1.4 10-2.9 7.4-1.7 13.9 4.1 19.6 17.9 17.6 36.9 34.1 55.6 50.9 5.3 4.8 11.5 9 14.6 15.4 4.1 8.9 4.2 18-1.1 27.2-13.8 23.8-26.1 48.5-39.5 72.5-3.9 7-4.8 14.2 0.3 20.9 4.9 6.4 11.8 5.9 18.7 4.7 68.6-11.4 137.2-23.1 205.7-34.9 6.3-1.1 13-2.3 15.6-9.8 0.9-2.3 2-4.4 5.1-4z"/>
			<path id="&lt;Path&gt;" class="s51" d="m611.3 1096.8c12.6 7.5 26.3 6.7 39.5 3.4 19.7-4.8 35.5-17.2 52-28.3 8.6-5.8 17.3-11.4 26.8-15.6 14.6-6.5 29.8-9 45.7-6.4 4.7 0.7 9.5 0.4 14.2 0.6-1.6 2.9-5 4.7-5.2 8.5-22.7-0.8-44.8 1-64.4 14.6-11.4 7.9-22.8 15.7-34.7 22.9-9.7 6-19.9 11.5-31.2 14.4-24.9 6.2-44.8-5.7-64.6-17.7-5.8-3.5-11.4-7.4-17.1-11.1q-0.1-0.7-0.2-1.4c0.7-1.6 2.1-1.9 3.7-1.9 7.8 4.5 15.5 9.2 23.4 13.5 3.7 2.1 7.5 4.5 12.1 4.5z"/>
			<path id="&lt;Path&gt;" class="s52" d="m575.8 1078.8q-1.9 0.9-3.7 1.9c-9.5-5.3-18.8-11.1-28.6-15.7-16.9-8-35.2-5.6-53.2-5.5-13.1-0.1-26.1 2.8-39.2 1.4-5.3-5-12.4-5-18.8-6.5-13.9-3.3-25.5-10-34.2-21.5-1.7-2.2-4.8-4-2.2-7.5 7.3 7.5 13.6 9.1 24.6 3.6 36-18 72.1-35.9 108.1-53.9 44-22 89.2-41.5 132.7-64.6 4.6-2.5 10-4 12.4-9.5 1.6-3.5 4.9-3.9 8.2-4.1q35.9-1.4 71.5 2.7c6 4.3 2.4 8.1-1.3 10.5-7.5 4.8-15.3 9.6-24 11.5-7.4 1.6-14 4.4-20.6 7.8-38.1 19.3-76.5 37.8-114.8 56.7-39.8 19.6-79.2 40.2-120.3 59.7 7.6 0.1 14.3-0.3 20.9-0.8 11.3-0.9 22.4 1 33.6 2.3 9.2 1 15.1 7.4 22.2 12 8.1 7.5 19.7 10.4 26.7 19.5z"/>
			<path id="&lt;Path&gt;" class="s49" d="m441.9 932.8c-4.1 13.1-16.2 12.2-26.1 14-34.3 6.3-68.8 11.9-103.2 17.7-32.1 5.5-64.1 11.1-96.3 16.2-7.8 1.2-16.3 1.3-21.4-6.7-5-7.7-5.4-15.8-0.7-24.2 13.7-24.7 26.9-49.6 40.7-74.3 7.4-13.3 4.2-22.9-11.5-36-20.4-16.9-40.1-34.8-58.9-53.6-8.5-8.5-7.9-17.7 1.6-30.9 9.1-4 19.2-3.1 28.5-5.9q13.3-1.7 26.6-3.5c6.6 0.5 6.7 6 7.6 10.4 7.3 37.2 14.2 74.5 21.4 111.7 3.5 18 6.7 36.1 10.4 54.1 5 24.3 11.8 29.1 36.3 25.3 43.9-7 87.8-13 132-17.8 4.6-0.5 9.6-1.2 13 3.5z"/>
			<path id="&lt;Path&gt;" class="s53" d="m395.9 1025.4c6.1 12.8 17.6 18.7 30.1 23.1 6.1 2.1 12.5 3.7 18.8 5.2 4.1 0.9 6.4 2.9 6.3 7.2-25.7 0.5-44.9-10.7-58.7-32-2.3-6.8-7.6-12.2-9-19.5q6.3 8 12.5 16z"/>
			<path id="&lt;Path&gt;" class="s54" d="m981.9 617.3q3.7 0.2 7.3 0.5c1.7 0.9 3.7 0.8 5.5 1.5 6.8 2.6 10.8 8 13.8 14.2 2.5 5.1 2.3 9.8-3 13.2-3.9 1.9-8.1 1.6-12.3 1.6q-77.9 0.1-155.8 0c-3.8 0-7.7 0.1-11.4-1.1-2-0.6-3.9-1.4-5.4-3-11.8-12.2-24.5-12.6-37.2-1.5-3.9 3.4-7.3 8.3-13.7 6.1-15.2-1.1-30.4-0.2-45.6-0.4-8-0.1-15.9-0.3-23.8 0-4.5 1-7.8-1.1-11.4-3.6-24.6-17.2-61.7-17-86.3 0.2-7 5-11.4 11.9-15.3 19.3-2 3.9-3.3 8.4-7.8 10.4-6.8 0.5-13.7 2.5-20.4-0.8-2.3-2.2-2.7-4.8-2.4-7.9 0.5-5.2-2.2-9.5-5.1-13.5-4.8-15.5-6.3-16.4-22.4-16.8-16.3-0.5-31.6 2.9-46.3 9.7-4 1.9-8.1 4.1-12.7 2-2.8-1.3-5.9-0.8-8.8-0.8-56.3-0.1-112.5 0-168.8-0.1-5.6 0-11.3 0.8-16.6-1.7-5.6-3.7-5.7-8.8-2.4-13.6 3.7-5.3 7.5-10.6 14.4-12.2 4.6-2.9 10-1.8 15-3 16.2-2.5 32.4-5.1 48.6-7.4 14.5-2 29-3.7 43.6-5.5 15.7-1.9 31.4-3.6 47.1-5.4 6.1-4.3 13-5.1 20.2-5.8 61.4-6 122.9-7.5 184.5-7 5.3 2 10.6 0.3 15.8 0.2 33.4-0.6 66.8 0.6 100.1 3 17.1 1.3 34.2 1.4 51.2 4 13.8 1.2 27.6 2 41.3 3.5 38.5 4.2 76.9 9.2 115.2 15.6 4.5 0.8 8.6 2.1 11.3 6.1z"/>
			<path id="&lt;Path&gt;" class="s55" d="m647.2 588.8c-14 0.1-27.9 0.7-41.8 0.2-26.6-1-53.1 1.2-79.7 2.1-27.8 1-55.6 4.3-83.4 6.6 6.9-9.8 18.4-12.9 28.1-17.8 18-9 36.1-17.5 54-26.7 9.4-4.7 20.7-5.8 28.2-14.2 4.1-8.5 13.1-9.9 20.3-13.8 7.4-1.6 12.8-9.1 21.3-7.1 22 17.4 45.5 19.9 64.3 5.1 12.2-9.6 19.6-22.8 17-39.4-0.5-3.4-1-6.5 2.4-8.6 2.6-1.1 5.1-0.9 7.4 0.7 4.9 6.4 2.9 13.5 2.2 20.4-1 9.1-1.9 18.2 1.7 27 1.3 7.6 4.8 10.2 13.5 10 7.1-0.2 12.6-4.7 12.6-12.2 0-9.2 1.7-18.2 2.1-27.3 0.4-12.7 8.7-19.5 20.6-15.7 6 2 12.5 0.5 18.2 3.3 1.8 1.7 2.9 3.9 2.6 6.3-1.4 10.9 2.8 20.7 5.8 30.8 0.3 3.3 0.6 6.6 0.2 9.9-3 6.6-9.1 9.2-15.1 11.8-27.7 12.1-53.9 27-80.9 40.5-7 3.5-14.5 5.2-21.6 8.1z"/>
			<path id="&lt;Path&gt;" class="s14" d="m303 616c-4.3 2.9-9.9 0.6-14.1 3.6-15.3 6.5-20.1 14.4-17.8 30.4 3.5 23.9 9 47.4 13.1 71.2 0.3 1.8 0.7 3.5 0.4 5.3-3.7 6-17 9.2-25 5.6-2.6-1.2-5.7-2-7.5-4.7-4.7-13-6.3-26.6-8.7-40.1-0.5-2.9 1.6-5 2.6-7.4-1.3-10.6-5.3-20.8-5.1-31.7 0.2-13.5 6-22.6 19.2-25.6 14.1-3.2 28.2-7.3 42.9-6.6z"/>
			<path id="&lt;Path&gt;" class="s56" d="m246 679.9q4.7 24 9.5 48.1c3.3 3.2 5.2 6.8 2.6 11.5-7.4 6.2-15.7 7.6-24.8 4.9-8.2-12.5-17.4-24.3-24.7-37.3-1.4-2.3-4.3-4.2-3-7.7 14.3-4.8 27.3-12.1 40.4-19.5z"/>
			<path id="&lt;Path&gt;" class="s57" d="m205.6 699.4q13.3 21.4 26.7 42.8c0.1 1.5-0.4 2.4-2.1 1.5-7-13.9-17.5-25.5-25.2-38.9-1.7-5.4-5.8-10-5.5-16.3q3 5.5 6.1 10.9z"/>
			<path id="&lt;Path&gt;" class="s58" d="m230.2 743.7q1.1-0.8 2.1-1.5c8.3 0.1 16.4-1.8 24.4-3.7 6.3 1.8 6.2 7.6 7 12.2 3.1 19.1 8.1 37.9 10.1 57.2 5.2 19.2 8.3 38.9 11.5 58.6 2.9 12.9 5.1 26 8.1 38.9 3.2 13.7 13.9 20 29.4 17.5 14.9-2.3 29.8-4.6 44.7-7 19.6-3.2 39.2-5.4 58.9-8 4.7-0.6 10.2-1.8 13.8 3.4 2.9 5 2.1 10.9 3.6 16.2-2.3 1.2-1.3 3.5-1.9 5.3-29 1.7-57.6 5.8-86.3 9.7-21.1 2.9-42.1 6.8-63.2 9.6-21.2 2.9-31.1-4.4-35.2-25.5-7.9-41-15.2-82.1-23.6-123-3.9-19.3-5.4-39.2-12.4-58 2.6-2.6 6-1.2 9-1.9z"/>
			<path id="&lt;Path&gt;" class="s6" d="m1056.8 745.7c-5 17.3-7.4 35.2-10.8 52.8-8.4 43.6-16.7 87.3-25.1 130.9-3.4 17.9-16.4 26.2-36.7 22.6-39.6-7.1-79.5-12-119.4-17.1-9.1-1.2-18.3-1.3-27.4-2-2.1-1.3-1.3-3.6-1.8-5.4q0-1.8-0.1-3.5c-3.6-3-2.3-6.6-1.3-10.1 0.5-2.1 1.3-4 2.9-5.4 11.9-3.5 23.6 0.3 35.1 1.7 28.5 3.4 56.9 7.9 85.2 12.7 18.2 3.2 27.7-4.1 31.5-22.5 5.5-27 10.3-54.2 15.5-81.2 0.9-4.4 2.9-8.4 3.2-12.9 2.4-20.3 7.2-40.1 11-60.1 0.6-3.5 1.7-6.9 5.2-8.9 9.4-1 18.8-2.1 25.9 6.4 2.3 0.7 5.2-0.4 7.1 2z"/>
			<path id="&lt;Path&gt;" class="s59" d="m1049.7 743.7c-8-2.8-16.8-1.7-24.8-5-6.3-4.1-0.6-9.5-1.4-14.2 0-6.8 0.5-13.4 4.6-19.2 10.1-8.3 22.7-6.1 34.4-7.9 4.6-0.7 9.9-3.2 13.8 2.1-3.9 12.6-13.1 22-19.7 33.1-2.2 3.7-4.6 7.4-6.9 11.1z"/>
			<path id="&lt;Path&gt;" class="s60" d="m1076.3 699.5c-15.3 2.9-31.1 1.9-46.1 7-3.9-7.3-3.2-9.9 3.6-14.2 15.9-2.6 31.8-1.5 47.8-1.7q-2.7 4.4-5.3 8.9z"/>
			<path id="&lt;Path&gt;" class="s33" d="m887.6 318.3q6 11.6 12.1 23.2c-3.8 6.7-11 9-17.2 11.9-29.1 13.7-57.7 28.6-86.5 43.1-24.6 12.3-49.7 23.5-74.3 35.9-5.2 2.7-10.7 5-15 9.3-7 2.2-15.8 1.1-19 10.3-5.4 4.4-11.8 5.6-18.6 5.4-9.5-2.7-16.7-8.2-20.4-17.7 1.6-5.2 6.3-6.9 10.5-8.9 38-18.6 75.5-38.1 113.9-56 35.4-16.4 69.8-34.9 104.7-52.4 3.2-1.6 6.6-2.8 9.8-4.1z"/>
			<path id="&lt;Path&gt;" class="s33" d="m577.3 476.8c0.8 12.2 3.7 23.8 11.1 33.9 0.8 3.4 6 4.4 4.9 8.9q-9.8 4.4-19.5 8.8c3.5-6.7 7-13.5-1.3-19.4-3.5-16-14-20.8-28-13-5.9 3.3-11.7 3.6-17-1.4-2.8-10.2 5.2-18.6 16.3-17.2 2 0.3 4 1 5.9 1.7 6.2 2.5 12 3.3 17-2.3 1.5-1.6 3.7-1.9 5.8-1.7q2.4 0.8 4.8 1.7z"/>
			<path id="&lt;Path&gt;" class="s61" d="m705.8 439.2c10.6-11.7 25.7-15.6 39-22.4 16.3-8.4 33.1-15.9 49.6-24 29-14.3 57.8-28.7 86.8-43 6.1-2.9 11.1-8.1 18.5-8.3 6 11.9 13.1 23.2 21.3 33.7-21.4 9.9-44 16.9-66.1 25-45.5 16.5-91.9 30-138.4 43-5 2.3-8.7 1.3-10.7-4z"/>
			<path id="&lt;Path&gt;" class="s62" d="m647.2 588.8c6.3-7.7 15.9-9.9 24.2-14.2 30.3-15.9 61-30.8 91.6-46.1 2.4-1-0.9-19.6 0.6-18 15.7 16.8-10.5-11 10.6-12.8 9.2-0.8 13 4.8 8.5-4.7-0.3-3.6 40.6-1.9 41.7-5.5 6-6 20.9 13.9 24.7 5.9 22.8-11.7 45.3-17 68.5-28 25.8-12.2 50.9-26 77.4-37.1 3.3-1.3 6.5-2.5 10-3.1 16.6 12.6 19.5 31.1 21.3 50 0.3 4 0 8.2 0 12.3-6 9.3-16.2 12.7-25.3 17-44.9 20.9-88.5 44.1-132.9 65.8-17.8 8.7-35.4 17.7-53.6 25.6-27.9-2.5-55.9-3.6-83.9-5.5-27.8-1.9-55.6-0.3-83.4-1.6z"/>
			<path id="&lt;Path&gt;" class="s32" d="m814.5 595.9c1.3-5.4 6.1-7.2 10.2-9.1 52.8-24.9 104.5-52 156.9-77.7 14.9-7.3 29.8-14.4 44.7-21.6-3 27-6.5 53.9 3.4 80.4 1.2 3.3 1.8 6.8 2.9 10.2 1.7 5.3-0.5 8.2-5.3 10.4-12 5.5-24 11.4-35.9 17.2-4.8 2.4-9.4 5.2-9.5 11.6-23.3-3.5-46.5-7.1-69.9-10.4q-33.8-4.7-67.7-8.8c-9.9-1.1-19.9-1.5-29.8-2.2z"/>
			<path id="&lt;Path&gt;" class="s63" d="m848.5 484.1c-0.2-9.9-5.3-17.5-11.1-24.9 21.7-4.4 43.5-8.5 65.1-13.3 30.2-6.7 60.4-14 90.6-21.2 4.1-1 8.1-2.3 11.9 0.5-2.6 3.8-6.6 6-10.6 7.8-40.5 18.8-80.8 38.2-120.2 59.3-7.5 4-15.3 7.9-23.8 9.5-3.4-5.7 0.7-12-1.9-17.7z"/>
			<path id="&lt;Path&gt;" class="s14" d="m1033.8 692.3c-2.9 4.3-2 9.6-3.6 14.2q-2 9-4.1 18c-0.9 1.8-1.7 3.7-4 4.3-7.1 1.8-14.4-1.5-21.6 1.2-1 0.4-2.3-1.5-3-2.8-1.2-12 2.9-23.2 4.9-34.6 2.3-13.6 5.3-27.1 7.8-40.7 2.9-16.3-2.6-26-17.5-32.3-1.3-0.4-2.9-0.1-3.5-1.8 11.3-0.4 22.2 2 32.8 5 14.3 3.9 21.2 18 18.1 33.3-2.4 12-6.3 23.8-6.3 36.2z"/>
			<path id="&lt;Path&gt;" class="s53" d="m837.6 910q-0.1 2.5-0.3 5c-10.2 8.8-23.4 9-35.5 12.2-16.6 4.3-33.3 7.8-50.2 10.8-6.5 1.2-11.7 3.7-15.5 9.1-5 12.7-17.4 16.5-28 21.6-26.1 12.5-52 25.6-77.9 38.4-25.5 12.6-51 24.9-76.4 37.4-10.9 5.3-11.4 7.1-4.7 14.8-27.9-14.3-57.9-9.8-88.1-9.2 1.4-4.8 5-5.3 7.6-6.7 38.2-18.9 76.4-37.6 114.5-56.5 41.6-20.6 83.2-41.4 124.6-62.3 12.9-6.5 27.8-8 40-16.3 2.7-1.8 6-2.6 8-5.5 1.9-3 4.9-2.6 7.9-2.6 22.1 0.2 44 2.6 65.9 5.4 3.3 0.5 6.6 0.7 8.1 4.4z"/>
			<path id="&lt;Path&gt;" class="s64" d="m736.1 947.1c-0.7-6.1 0.8-10.5 7.6-11.8 30.3-5.5 60.2-12.8 90.1-20.1 1.1-0.3 2.4-0.2 3.5-0.2q-0.9 4.5-1.8 9c-19 6.1-38.7 9.4-58.1 14-13.7 3.2-27.5 6-41.3 9.1z"/>
			<path id="&lt;Path&gt;" class="s65" d="m837.6 910c-24.8-1.5-49.4-5.7-74.3-5.8-2.5 0-5.1-0.9-7.6-1.4-27.4-0.6-54.6-3.4-82-1.8-2-1.4-4.1-2.1-6.6-2-20.3 0.9-40.7-1.8-61 1.6-4.9 0.8-10.1 0.3-15.1 0.1-29.8-0.8-59.4 2.6-89.1 3.8-19.6 0.8-39.2 3.4-58.7 5.3-1.1 0.1-2 1-3 1.5-27 1.3-53.5 6.3-80.1 9.9-15.1 2.1-29.9 5.8-45.2 6.4-13.9 0.6-22.8-9.6-25.3-19.3-3.3-13.6-5-27.5-7.4-41.3 9.6-4 19.1-6.1 28.4 0.9 4.1 4.5 3.2 10.6 5 15.8 4.7 14.5 13 20.5 28 18.6 19.2-2.5 38.3-6.3 57.5-8.9 16-2.2 32-4.2 48.1-6 23.2-2.6 46.4-4.6 69.7-6.5 11.5-0.9 23-1.7 34.5-2.3 38.5-1.7 77-2.6 115.5-1.8 33.5 0.7 66.8 2.3 100.2 4.9 21.8 1.7 43.5 3.6 65.2 5.9 19.6 2.1 39.1 4.9 58.6 7.9 15.4 2.3 30.6 5.6 46.2 6.9 14.2 1.3 23.9-6.1 26.8-20.1 4.4-21.7 8.6-43.4 12.5-65.3 0.6-3.4 1.4-6.9 3.5-9.9 9.5-1.6 19-4 28.7-0.8-3.9 21.3-7.8 42.7-11.8 64-1.9 10.3-4.8 20.6-5.9 31-2.1 19.9-15 29.5-36.2 25.9-37.6-6.3-75.2-12.4-113.1-15.9-2-0.2-4-0.9-6-1.3z"/>
			<path id="&lt;Path&gt;" class="s66" d="m472.5 646c-20.7 13.5-32.9 33.5-42.8 55.3-4.8 3.2-9.8 0.3-14.7 0.4-16 0.4-32 2-47.8 0.8-21.6-1.5-43.2 1.6-64.7-0.7-6.5-0.8-13 2.2-19.3-0.9-5.5-4.8-4.9-11.9-6.2-18-2-9.2-3.6-18.4-5.3-27.7-0.8-4.5-2-9.5 3.3-12.6q92.5-0.1 185.1-0.1c4.4 0 8.9-0.1 12.4 3.5z"/>
			<path id="&lt;Path&gt;" class="s67" d="m825.4 651.5c-1.4-2.2-2.3-4.5-1.8-7.2q91.5 0.1 182.9 0.1c3.4 1.8 4.2 5 3.5 8.2-2 8.4-2.5 17.2-5.6 25.4-3.6 5-7.4 9.7-10.7 15-3.4 5.5-7.8 11.5-16.1 10.2-44.9 0.8-89.8 0-134.7 0.3-4.9 0-10.1 0.7-14.4-2.8-3.1-5.9-1.1-12.2-1.6-18.3-0.7-10.3 1.4-20.7-1.5-30.9z"/>
			<path id="&lt;Path&gt;" class="s47" d="m1001.1 678.3c1.1-11.5 5.7-22.3 5.4-33.9 1.5-11.7-5.6-18.6-13.8-24.8 17.4 1.9 24.9 16.5 20.6 37-5.1 23.7-9 47.6-13.3 71.5 4 7.5 0.8 15.1-0.5 22.4-2.6 14.8-5.7 29.4-8.4 44.2-0.8 4.3-1.7 8.7-5.7 11.4-3.6 17.2-7.2 34.4-10.6 51.6-2.1 10.5-3.3 21.2-6 31.6-3 11.7-14.8 18.6-29.1 16.6-20.7-2.8-41.2-6.8-61.8-9.9-15.9-2.3-31.8-4.2-47.7-5.9-23.8-2.5-47.6-4.9-71.5-7-10.5-0.9-21.1-1.2-31.7-1.6-41.9-1.6-84-3.7-126-1.9-25.5 1.2-51.1 1.7-76.6 3.5-25.4 1.8-50.8 3.9-76 7.2-27.6 3.5-55.3 6.2-82.7 11.9-7.3 1.5-14.9 2.4-22.3 3.7-17.1 3-27.1-4-31.3-21.2-1.3-5.3-2.5-10.7-3.8-16-3.4-3.1-5.1-6.9-6-11.5-3.3-16.8-7-33.5-9.1-50.5-5.9-21.3-8.5-43.3-13.2-64.8-1-4.7 0-9.3 1.6-13.8-5.2-27-10.6-53.8-15.5-80.8-1.8-9.8 5.5-26.3 22.8-27.7-7.2 6.1-15.9 11.3-13.9 23-0.1 17.1 5.4 33.3 7.8 50 0.4 2.4 0.8 4.7 1.2 7 4.3 1.9 5.7 5.9 6.4 10 4.6 25.3 10 50.4 14.2 75.8 5.6 26.9 11.3 53.9 15.6 81.1 4.6 29.6 17 30.7 38.2 26.8 44.3-8.1 89-13.4 133.9-17.4 23.8-2.1 47.8-3.1 71.8-4.5 40.6-2.4 81.2-1.3 121.8-1.2 36.1 0.2 72.1 3.3 108.1 6.4 45.7 4.1 91.2 10.4 136.5 17.8 17 2.8 25-3 28.5-19.8 8.1-38.3 14.7-76.9 22.3-115.3 0.5-2.3 0.9-4.6 1.8-6.8 4.4-23.2 6.5-46.8 14.9-69.1 0.7-1.9 1.2-4 3.1-5.1z"/>
			<path id="&lt;Path&gt;" class="s68" d="m556.6 747.7c-12.7-24.9-32.6-38.2-60.9-37.9-1.5-5.5 2.2-8.2 6-10.5 10.1-6.2 21.1-9.1 32.8-8.9 10 0.1 18.4-1.1 20.6-13.1 0.5-2.2 2.3-4.1 4.9-4.6 6.4-1.1 12.7-2.9 19.1 0.2-0.9 7.3 1.5 13.7 5.8 19.5 7.8 12.6 17.9 21 33.9 18.8 2.2-0.3 4.1 0.4 5.6 1.9-0.8 10.7-2.1 21.5 5.1 30.9q0.6 1.5 0.1 3.1c-2.1 4.4-5.9 5.6-10.3 4.7-17.1-3.4-34.1-0.5-51.1 0.3-4.9 0.3-8.7-0.4-11.6-4.4z"/>
			<path id="&lt;Path&gt;" class="s69" d="m771.5 647.6c-10.9 10.2-22.1 20.3-32.8 30.7-11.7 11.4-12.1 15.2-4.2 30 1 2.2 1.7 4.3 0 6.4-4.8 3.9-9.4 2.9-13.7-1-3.1-3.1-2.8-7-2.4-10.9 0.7-6.5 0.1-12.9-1.7-19.3-2.4-14.2-9.5-26.2-18.2-37.4 4.7-2.5 9.8-1.8 14.8-1.8q23.9-0.1 47.8 0c3.8 0 7.9-0.7 10.4 3.3z"/>
			<path id="&lt;Path&gt;" class="s9" d="m560 672.7c-0.6 2.5-1.3 5.1-1.9 7.6-2.9 11.2-6.1 13.9-17.7 13.8-12.2-0.2-23.8 1.7-34.7 7.4-4 2-7.6 4.5-10 8.3-5.5 0.4-11.1 0-18.1 3 8.3-16.9 20-26.6 36.4-31 6-1.6 12.1-2.1 18.3-1.8 15.9 0.9 21.5-5.9 22.2-22.3 0.1-2 0.1-4.1 0.2-6.2 6.3 5.9 4.5 13.9 5.3 21.2z"/>
			<path id="&lt;Path&gt;" class="s39" d="m677.4 476.9q-1.7-1.3-3.4-2.7c0-6.8-2.3-13-5.9-18.6 5.4-3.6 12.3-2.5 17.9-5.5q-1 13.3-1.9 26.5-3.4 0.2-6.7 0.3z"/>
			<path id="&lt;Path&gt;" class="s26" d="m281.6 728.1c4.8 24.6 9.7 49.2 14.5 73.9 0.2 1.4-0.2 2.9-0.3 4.4-6.4 6.4-13.9 6.9-24.8 1.8q-6.1-30.5-12.2-61.1c-0.6-2.9-1.4-5.7-2.1-8.6q-0.6-5.3-1.2-10.5c8.7 1.3 17.4 4 26.1 0.1z"/>
			<path id="&lt;Path&gt;" class="s70" d="m271 808.2c8.2-2.1 16.7 0.9 24.8-1.8 4.5 10.7 4.3 22.5 7.3 33.6 2.5 9.3 3.5 19.1 5.2 28.7-8.5-4.1-17.7 2.6-26.1-1.7-4.8-19.4-8.1-39.1-11.2-58.8z"/>
			<path id="&lt;Path&gt;" class="s26" d="m985.4 806.1c1.8-18.4 6.5-36.3 9.6-54.5 1.4-7.9 3.3-15.7 5-23.5 2.3 1 3.9 0.5 4.8-2 2.1 1.6 2.9-3.7 6.8-0.6 2.7 2.2 9.8 1.8 14.5-1 1.5 4.9-2.7 9.3-1.2 14.2-5.1 14.2-5.7 29.2-9.2 43.7-1.9 7.9-3.4 15.9-5.1 23.9-8.4 1.5-16.8 6-25.2-0.2z"/>
			<path id="&lt;Path&gt;" class="s71" d="m641.4 478.6c2 7.3-2.1 12-7.6 15.3-6.7 4.1-13.3 2.6-19.1-2.8-2.3-7.1-0.4-12.6 6.3-16.1 7.1-3.7 14.9-2.3 20.4 3.6z"/>
			<path id="&lt;Path&gt;" class="s72" d="m721.6 711.9c4.1 2.2 8.5 1.9 12.9 1.8 5.5-0.2 6.8 5.1 9.6 8 6.9 7.1 13.8 11.9 24.1 7.5 2.2-1 4.6-0.9 6.7 0.6q0 28.5 0.1 57c-0.8 0.9-1.4 2.1-2.4 2.5-15.9 6.5-32.1 11.4-49.6 9-2.4-2.6-2.6-5.6-1.9-9 2.3-10.4 1.8-20.7-0.8-31-0.6-9.7-6.9-16.9-11.2-25 1.3-8.8 4.3-16.6 12.5-21.4z"/>
			<path id="&lt;Path&gt;" class="s9" d="m720.3 758.3c7.1 12.5 5.6 25.7 3.6 39 3.3 6.1 0.1 11.1-3 15.7-10.7 16.4-25.1 28-44.5 33-18.2 4.7-36.3 4.4-54.2-0.7-16.2-4.6-29.1-14.1-38.7-28.1-0.7-3.6-3.7-6-5.1-9.3-1.4-3.6-2.8-7.4 1.2-10.5 14.3 21.7 34.5 31.3 60.3 32.4 24.6 1 46.5-3.9 64-22.5 10.4-11 16.8-23.6 16.2-39.2-0.2-3.3 0.1-6.5 0.2-9.8z"/>
			<path id="&lt;Path&gt;" class="s73" d="m556.6 747.7c10.4 1.8 21.1 0.5 31.6 0.8 11.3 0.4 22.9-1.5 34.4 0 2.7 0.3 4.3-1.5 6.3-2.7 7.9 11.4 19.9 13.4 32.5 14.3 5.1 0.4 9 2.8 9 8.9-3.9 10.9-13.3 13.6-23.2 14-10.4 0.5-19.8-2.6-25.2-12.8-1.3-2.3-2.3-4.7-3.4-7.1-2.8-6.4-6.8-10.8-14.6-10.3-4.7 0.3-9.4 0-14.2 0.1-13.3 0.2-18.9 5.9-19.1 19.6-1.9 2.4-4.2 2.6-6.8 1.6-4-3.3-1.8-8.4-3.8-12.3q-1.7-7-3.5-14.1z"/>
			<path id="&lt;Path&gt;" class="s9" d="m624.4 713.1c-13.2 5.5-24.4 1.9-34.4-7.4-3.8-3.6-5.9-7.9-5.1-13.3 4.3 2.2 8.6 4.5 12.9 6.6 10.8 5.3 22.8 2.1 27-9 4.9-13.1 19.2-17.1 31.7-13.4 8.9 2.7 12.3 9.9 8.6 17.5-8.1 0.8-16.3-0.4-24.3 2.2-3.1 1.1-6.2 1.8-8.1 4.7-4.8 2.6-6.1 7.6-8.3 12.1z"/>
			<path id="&lt;Path&gt;" class="s49" d="m563.6 772.5q3.5 0 7.1 0c3 8.3 3.8 17.4 8.9 24.9-0.4 7.1 4.6 11.9 7 17.9-9.5 8.6-20.4 6.3-31.3 3.8-2.4-1.8-3.1-4.6-2-7 5.9-12.6 7.3-26.3 10.3-39.6z"/>
			<path id="&lt;Path&gt;" class="s9" d="m670.4 769c-5.6-8.7-15.3-5.9-22.6-6.5-11.9-0.9-16.6-6.6-18.9-16.7q0.3-0.9 0.6-1.8c8.5 6.9 19.2 1.7 28.6 5.2 9.1 3.4 14.8 11.1 12.3 19.8z"/>
			<path id="&lt;Path&gt;" class="s9" d="m721.6 711.9c-2.5 8.1-6.2 15.5-12.5 21.4-5-2-8.7-5.6-12-10.2 15.6-8.7 20.6-22.7 19.6-39.6 5.5 8.8 5.6 18.6 4.9 28.4z"/>
			<path id="&lt;Path&gt;" class="s74" d="m632.7 701c5.6-11 20.6-14.2 32.4-6.9-3.9 5-9.4 5.2-15 5.4-5.8 0.3-11.8-1-17.4 1.5z"/>
			<path id="&lt;Path&gt;" class="s68" d="m301.2 785.1c-5.6-20-7.9-40.5-12.2-60.7-1.7-8.3-3.4-16.6-5-24.8 13.1-2.7 26.3-2.3 39.6-1 5.5 0.6 11.1-0.8 16.7-0.8 24.7-0.2 49.4 0 74.2-0.2 5.4 0 10.5 0.8 15.2 3.7-3.3 14-6.6 28.1-7.2 42.6-0.8 20.7 3.1 40.4 12.8 58.9 0.5 5.5 8.7 8.7 4.7 15.5-6.2 3.4-12.9 1.3-19.1 0.6-36.5-3.9-72.6-10.1-107-23.7-5.5-2.2-9.8-5-12.7-10.1z"/>
			<path id="&lt;Path&gt;" class="s9" d="m477.6 779.6c-8.2-10.1-6.5-19.1 4.9-24.5 13.6-6.4 30.6 0.5 28.8 15.7-1.6 1.7-3.6 2.3-5.7 1.7-9.1-2.7-16.9-0.3-23.8 6-1.1 1-2.7 1.1-4.2 1.1z"/>
			<path id="&lt;Path&gt;" class="s75" d="m477.6 779.6c7.5-12.8 16.5-15.2 33.7-8.8-4.6 15.6-21.3 19.9-33.7 8.8z"/>
			<path id="&lt;Path&gt;" class="s6" d=""/>
			<path id="&lt;Path&gt;" class="s6" d=""/>
			<path id="&lt;Path&gt;" class="s6" d="m827.3 772.4c3-4.4 7.7-6.2 12.5-7.6 16.8-4.5 33-10.7 49.2-16.9 3.8-1.5 7.7-2.9 12-2.4 11.1 2.7 22.2-0.7 33.4-0.2 13.2 0.5 26.5 0.3 39.8 0.2 5.7 0 10.5 1.5 12.7 7.4-4.6 24.2-9.3 48.3-14 72.5-3.6 19-7 38-10.8 57-2.4 11.9-18.3 19.3-34 16.3-27.3-5.2-54.9-9.1-82.6-12.3-32.7-3.9-65.5-6.5-98.3-9.2-56-4.5-111.9-3.2-167.8-2.9-28.3 0.2-56.6 2.4-84.7 5.3-47.3 4.9-94.5 10.2-141.3 18.8-18.8 3.5-32.1-0.3-36.1-26-3.5-22.6-8.6-44.9-12.9-67.4-1.3-6.6-2.2-13.3-3.2-19.9 35 16.2 72.2 24 110.2 28.4"/>
			<path id="&lt;Path&gt;" class="s68" d="m829 772.3q0-36.4 0-72.8c22.4-0.6 44.9-0.8 67.3-0.6 25.6 0.1 51.3-0.2 77 0.7 2.3 0.1 4.5 1.1 6.8 1.7 1.9 4.6-1.2 7.3-4.2 9.7-18.1 14.6-38.8 24.8-59.8 34.4-5 2.3-11 1.5-16.2 3.9-8.7 0.9-16.4 5.1-24.4 8.1-15.2 5.8-30.9 10.1-46.5 14.9z"/>
			<path id="&lt;Path&gt;" class="s76" d="m899.9 749.3c13-6.5 25.9-12.9 38.9-19.4 12.8-6.3 24.6-14.1 35.9-22.8 2.1-1.5 3.6-3.8 5.4-5.8 6.3-4.6 11.3-10.2 15.4-16.8 1.5-2.4 2.2-5.6 5.6-6.2q-6 31.3-12 62.6c-0.8 4-1.5 8-2.2 12-9.6-5.7-20.2-3-30.4-3.4-18.8-0.6-37.7-0.2-56.6-0.2z"/>
		</g>
		<path id="&lt;Path&gt;" class="s68" d="m490.8 617.7l-123.6 84.8 44.2 111 29 3.5c0 0 286.2-20.4 294.6-20.1 8.4 0.3 148.6-43.7 164.9-47.6 16.2-3.9 74.8-42.2 74.8-42.2l-108.7-85.2-262.3-14.9z"/>
		<g id="&lt;Group&gt;">
			<path id="&lt;Path&gt;" class="s77" d="m484.6 701.2c-1.4-6.9 2.9-15.3 11.8-16.4 6.8-0.9 13.6-2 20.4-3 6.4-0.9 12.9-1.7 19.3-2.6 6.4-1 12.8-2 19.2-3 5-0.7 10-1.3 14.9-2.2 4.1-0.7 7-3.2 8.9-6.9 5-10 10.1-19.9 14.9-29.9 5.4-11.4 11.4-22.5 16.7-33.9 2.3-5 5.4-8.6 10.8-10.2q3.3 0 6.6 0c5.7 0.5 9.3 3.6 11.5 8.7 2.7 6.1 6.2 11.8 8.7 17.9 0.2 0.4 0.5 0.7 0.8 1.1 4.1 8 7.7 16.3 11.8 24.3 3.9 7.6 7.7 15.3 11.6 22.9 0.5 1 1.4 2 0.2 3.1q-0.2 0.4-0.6 0.4c-1.9-0.8-3.3-2.2-4.2-4-2.7-5.2-5.1-10.4-7.6-15.6-0.8-1.7-2-3.4-4.2-3-1.6 0.3-3.1 0.5-4.6 1-1.6 0.2-1.7-1.2-2.1-2.1-3.2-6.3-6.5-12.5-9.4-19-0.9-2.2-2-4.3-3.3-6.3-0.8-1.1-1.6-1.3-2.7-0.7-1.1 0-1.6-0.9-2.4-1.4-5.3-4.1-12.3-2.9-15.5 3.1-4.8 9-9.4 18.2-13.7 27.4q-6.7 14.2-14 28c-1.8 3.3-4.7 5.6-8.6 6.3-11.4 1.8-22.8 3.4-34.2 5-8.6 1.2-17.2 2.5-25.8 3.8-6.8 1-10.3 5.6-9.3 12.2 0.1 1.4 1.2 2.7 0.9 4.2-0.4 0.5-0.3 1.2-0.4 1.8-1.7 1.8-4.2 2.4-6.4 3.4-3.2 1.5-3.5 2.8-1.2 5.3 2.1 2.2 4.3 4.2 6.3 6.4 0.7 0.7 1.8 1.5 0.6 2.7-1.5 1.4-2.3 0-3.2-0.8-3-2.8-5.8-5.8-8.7-8.6-3.5-3.5-7.1-6.9-10.5-10.4-2.3-2.3-3.7-5.5-3.3-9z"/>
			<path id="&lt;Path&gt;" class="s78" d="m365.9 798.6c-0.2-0.5 0.2-1.3-0.6-1.6q0-2.8 0-5.6c1.8-5 6.5-5.8 10.6-7.1 7.8-2.5 15.6-4.8 23.4-7.1 4.5-1.4 8.8-3 13.3-4 5.1-1.2 6.6-5 7.9-9.2 2.8-9.2 5.7-18.3 8.6-27.5 1.4-4.5 2.6-9 4.4-13.4 0.7-1.7 1.8-2.9 3.5-3.4 3.7-1.2 7.4-2.4 11.3-0.5 0.2 1.1 0.9 1.8 1.4 2.7 2.7 3.9 5.8 7.6 8 11.8 5.8 7.2 10.8 15.2 16.3 22.7 1.3 1.8 2.3 3.7 4.3 4.9 0.4 0.3 0.7 0.7 0.5 1.3-0.4 1.6-4.4 4.9-5.8 4.6-0.7-0.1-1.2-0.8-1.7-1.4-3.5-4.4-6.4-9.2-9.7-13.7-0.3-0.4-0.7-0.8-1-1.2-1.8-2.9-3.9-5.6-5.7-8.6-0.6-1-1.5-1.4-2.6-0.9-1.2-0.2-1.7-1.1-2.3-1.9-0.7-1-1.3-2-2.2-2.9-3.3-3.6-8.2-2.8-10 1.8-1.9 5.1-3.3 10.2-4.9 15.4q-3 9.5-6 19-1.5 4.8-6.4 6.3c-9.8 3.1-19.6 6-29.3 9-1.5 0.5-3 0.9-4.4 1.4-4.5 1.7-5.8 4.7-3.8 9.1 1.1 3.5 4 5.2 6.7 7.2 3.2 2.2 3.1 3.8 0.1 6.3-1 0.8-1.8 2-3 2.6-0.8 0.2-1.2-0.5-1.8-0.8-4.9-3.6-10-7.1-15-10.7-1.8-1.3-3-2.9-4.1-4.6z"/>
			<path id="&lt;Path&gt;" class="s79" d="m890.9 797c-0.9 0.7-1 1.6-1.1 2.6-1.8 3-4.9 4.6-7.6 6.5-3.4 2.3-6.5 4.9-10 7-1 0.5-1.5 1.9-2.9 1.5-1.4-1.1-2.8-2.2-4.1-3.4-1.4-1.4-1.3-2.8 0-4.1 0.4-0.5 0.8-1.1 1.4-1.5 3-1.6 5.5-3.7 6.7-7.1 1.8-4.4 0.6-7.5-4-9-9.7-3.2-19.5-6-29.3-9-1.3-0.4-2.6-0.9-3.9-1.2-3.8-1.1-5.9-3.7-7.1-7.4-3.1-10-6.3-20-9.4-30-0.4-1.2-0.8-2.4-1.3-3.6-1.9-4.5-6.9-5.2-10.1-1.6-1.1 1.2-1.8 2.7-2.9 3.9-0.4 0.4-0.8 0.7-1.3 0.7-1.2-0.5-1.9 0-2.6 1-1.8 2.8-3.8 5.5-5.7 8.3-3.6 4.9-7 9.9-10.6 14.9-1.2 1.7-2.3 1.9-3.7 0.7-1.3-1.1-3.3-1.3-3.5-3.5 0.2-0.5 0-1 0.6-1.7 7-8.4 12.8-17.8 19.2-26.7 0.6-0.9 1.4-1.5 1.9-2.4 1.7-3.2 4.3-5.7 5.9-8.9 1.3-2.2 3.7-3.2 5.5-4.8 2.6-0.1 5.2 0.5 7.7 1.2 2.6 0.8 3.9 2.8 4.6 5.3 4.4 14 8.9 27.9 13.3 41.9 1 3.3 3 5.3 6.3 6.3 13.7 4.2 27.5 8.6 41.2 12.7 3.3 1 5.4 2.8 6.8 5.8q0 2.8 0 5.6z"/>
			<path id="&lt;Path&gt;" class="s80" d="m417.1 893.3c-3.7-1.6-6.8-3.5-7.1-8.1q0.3-0.3 0.4-0.7c1.9-0.9 3.3 0.3 4 1.5 1.1 1.8 2.5 1.6 3.9 1.2 3.1-0.9 5.5-3.1 8.1-5 10.5-7.9 21-15.8 31.7-23.4 3-2.1 6.6-3.2 10.4-1.5q0.4 0.2 0.8 0.3c0.9 0.4 1.7 0.7 2.6 1 1.4 0.3 1.9 1.2 1.7 2.6 0 1.5-0.8 2.1-2.3 1.9-4.3-1.8-8-0.9-11.8 2-11.4 8.7-23 17.1-34.5 25.6-1.5 1.2-3.1 1.9-4.9 2.6q-1.5 0-3 0z"/>
			<path id="&lt;Path&gt;" class="s80" d="m846.2 885.1c-0.5 4.3-3.2 6.7-7 8.2q-1.6 0-3.1 0c-5.6-2.1-9.8-6.3-14.5-9.7-8.9-6.4-17.6-13-26.4-19.6-3.1-2.3-6.4-2.5-9.9-1-1-0.3-2.4-0.3-2.2-2-0.2-3.1 2.4-2.6 4.1-3.1 4.6-2.7 8.7-1 12.3 1.8 10.9 8.2 22 16 32.8 24.3 1.7 1.4 3.6 2.7 5.7 3.2 1.4 0.3 2.7 0.6 3.8-1.1 1.1-1.8 2.6-2 4.4-1z"/>
			<path id="&lt;Path&gt;" class="s81" d="m648.1 621.3c-3.6-6-6.5-12.3-9.5-18.6-2.2-4.7-5.4-8.1-10.5-9.6q2.3 0 4.6 0c5.5 1.6 9 5.2 11.2 10.4 2.4 5.6 5.2 10.9 7.9 16.3-0.9 1.5-2.2 1.7-3.7 1.5z"/>
			<path id="&lt;Path&gt;" class="s82" d="m534.3 854.4c-1.2-1.5-1.1-3.4-1.4-5.1 1.1-1.8 2.9-2.6 4.7-3.3 4.9-2 9.8-4 14.6-6.2 1.1-0.6 1.7 0.4 2.5 0.9 4 2.7 8.1 3.1 12.5 0.9 11.7-6.1 23.4-12.3 35.1-18.5 6.8-3.5 13.6-7.1 20.4-10.6 3.4-1.8 6.9-1.9 10.5-0.1 4.6 2.3 9.2 4.5 13.6 7.1 0.8 0.5 2.1 0.7 1.7 2.2-0.2 0.9-0.8 1.6-1.7 2-3.6 1.5-7 3.3-10.7 4.3-2.3-0.4-4.2-1.6-6.1-2.7-3.8-2.2-7.7-1.9-11.4 0-16.1 8.5-32.2 17-48.4 25.4-6 3.1-11.9 6.5-18 9.4-5.3 2.5-12.3 1.3-16.2-2.8-0.8-0.8-1-2-1.7-2.9z"/>
			<path id="&lt;Path&gt;" class="s80" d="m639.8 835.5c-3.3-1.1-6.2-3.3-10.1-3.2-4.7 0.1-8.3 2.8-12.2 4.7-4.3 2.1-8.4 4.5-12.7 6.7-15.4 8.1-30.9 16.1-46.3 24.3-2.9 1.5-5.6 3-8.8 3.3-9 0.5-15.6-6.4-15.2-15.9 0.3-0.1 0.6 0.1 0.8 0.4 3.9 5.5 11 7.7 18.5 3.7 15.1-8.1 30.3-15.9 45.4-24 6.6-3.4 13.1-6.9 19.8-10.2 3.8-1.9 7.6-2.1 11.3-0.2 3.9 2.2 8.4 3.3 12.1 6 0.8 0.5 1.8 0.8 1.8 2-0.3 2.4-0.7 2.6-4.4 2.4z"/>
			<path id="&lt;Path&gt;" class="s83" d="m639.8 835.5c1.4-0.8 3-1.1 3.7-2.7 0.5-0.9 1.1-0.5 1.7-0.3q2.3 1 4.5 2.1c9.4 5.1 18.8 10 28.2 15 6.7 3.5 13.3 6.9 19.9 10.5 4.2 2.3 10.1 1.6 13.7-1.5 4.5-4 5.8-8.6 4.6-14.6-1.3-6.3-2.2-12.8-3.3-19.2-0.6-3.7-1.1-7.4-1.9-11.1-0.2-0.9-0.3-2 0.3-2.9 0.9-0.9 1.8-1.6 2.9-2.2 1.3-0.5 2.2-0.4 3.1 0.7 2.6 15.7 5.6 31.4 7.8 47.2 1 7.1-4.1 14-13.1 14.8-3.5 0.3-6.5-1-9.5-2.6q-12-6.4-24.1-12.8c-12.8-6.8-25.8-13.2-38.5-20.4z"/>
			<path id="&lt;Path&gt;" class="s84" d="m769 714.5c-6.3 6.5-12.4 13.1-19.2 19q-0.5 0.4-0.9 0.9c-10.2 10-20.4 20.1-30.6 30.1-3.1 3-5.9 6.1-6.6 10.5-2.3 0.7-4 2.8-6.6 2.5-2.9-7.5-1.1-13.6 4.8-19.1 8.9-8.3 17.6-16.9 26.3-25.5q3-2.9 6-5.9c0.1-0.5 0.6-0.4 0.8-0.4 4.1-0.2 7-3.3 10.6-4.7 3.8-1.5 7.3-4 10.7-6.4 0.8-0.7 1.7-1.4 2.7-1.8 0.9-0.4 1.8-0.5 2 0.8z"/>
			<path id="&lt;Path&gt;" class="s85" d="m542.1 789.8c1.2-7.1 2.8-14.2 3.5-21.4-1.2-2.1-2.5-4.2-4.2-5.9-1.2-1.1-2.3-2.3-3.4-3.4-1.7-1.9-1.4-3.5 0.8-4.7q2.3-1.2 4.6-2.2c3.2-1.4 3.5-2.2 0.8-4.6-4.7-4.5-9.2-9.1-13.9-13.5-2-1.8-1.9-4.5-3.4-6.5-0.3-0.4 0.2-0.6 0.4-0.8 1.1-1.1 1.8 0 2.5 0.6 2.5 2.4 4.9 4.8 7.2 7.3 5.8 6 12.5 11.1 17.8 17.6 5 3.5 7.2 8.1 5.3 14.3-0.1 0.5 0.2 0.9 0.3 1.4-0.9 3.7-1.3 7.6-2.3 11.3-0.2 2.4-0.4 4.8-1.5 7-1.2 0.1-2.3 0.8-3.4 1.4-2.6 1.3-5.5 2.1-8.3 3-1.2 0.4-2.1 0.1-2.8-0.9z"/>
			<path id="&lt;Path&gt;" class="s86" d="m715.7 679.8c5.4 0.7 10.9 1.4 16.3 2.2q9.7 1.3 19.3 2.9c3 0.4 6.1 0.8 8.5 2.9 0.5 0.8 1.9 0.9 1.6 2.3-0.4 1-1.4 1.1-2.2 1.4-5.3 2.3-10.6 4.7-16 6.8-1-0.1-2.1-0.6-2.7-1.2-1.1-1.1-2-1-3.2-0.4-1.3-0.8-3-1.1-4.1-2.3-2.2-0.8-4.4-0.4-6.6-0.3-1.4-1.1-3-1.2-4.7-1.4-7.3-0.9-14.7-1.9-22-3.3-0.8-1.9-0.1-3.2 1.6-4 4.3-2.1 8.5-4.6 13.4-5.1 0.4-0.1 0.5-0.4 0.8-0.5z"/>
			<path id="&lt;Path&gt;" class="s87" d="m461.1 750.4c3.5 3.7 6 8 8.9 12 3 4.1 4.8 4.1 7.9-0.1 1.1-1.2 1.8 0.2 2.7 0.3 14.4 0.1 28.9-0.8 43.3-0.4 2.4 0 4.7 0.4 7 1.1 5.5 2.1 7.1 8.3 3.3 13.4-4.5 6.2-9.2 12.3-13.8 18.5-4 5.3-7.9 10.7-12 15.9-2.4 3.1-3.3 6.3-1.7 9.9 0.5 1.2 0.3 2.6 1.2 3.6 1.4 4.2 2.8 8.4 4.1 12.6 0.3 0.9 0.8 2-0.2 2.8q-0.4 0.2-0.8 0.3c-1.2 0.2-1.7-0.4-2-1.4-2.3-7-5-13.7-6.7-20.9-1-2.5-0.2-4.8 1.3-6.9 4.5-6.6 9.6-12.8 14.3-19.2 4.1-5.5 8.2-10.9 12.3-16.4 1.4-1.9 2.1-4 1.6-6.4-0.5-2.1-1.9-2.9-3.8-1.8-2.4 1.4-4.8 2.7-7 4.2-1.5-1.1-3.1 0.2-4.6-0.4-0.9-0.4-1.9-0.1-2.6-0.8-5-0.2-10-0.6-14.9 0.5-1.1-0.8-2.2-0.9-3.6-0.8-6.2 0.1-12.4 0.3-18.5 0.6-2.3 0.1-4.3-1-6.3-2-3.5-4.9-7.1-9.8-10.5-14.9-0.6-1-1.7-2-0.4-3.3 0.5-0.6 1-0.3 1.5 0z"/>
			<path id="&lt;Path&gt;" class="s88" d="m715.7 679.8c-0.7 1.4-2 2-3.4 2.3-3.7 0.9-6.8 3-10.2 4.5-0.8 0.3-1.3 1-1.7 1.7-1.2 1.8-2.8 0.7-4.2 0.6-0.9-0.9-2-0.2-3-0.4-8.3-1.2-16.7-1.9-25-4-0.1 0-0.3-0.1-0.4-0.2-1.2-3.2-3.8-5.7-4.9-9-0.1-0.4 0.1-0.7 0.2-1 1.3-1.6 3.1-2.6 4.9-3.7 1.2-0.7 2.4-0.9 3.7-0.1q0.3 0 0.7 0c0.8-0.8 1.5-0.2 2.2 0.3 1.6 1.1 3 2.5 4.8 3.3q7.8 1.3 15.7 2.5 10.3 1.6 20.6 3.2z"/>
			<path id="&lt;Path&gt;" class="s89" d="m542.1 789.8c3.1-0.5 6-1.3 8.8-2.6 1.6-0.7 3.1-1.4 4.9-1.4 1.7 0.1 1.1 1.4 0.9 2.2-1.2 7.9-2.6 15.7-3.9 23.6-0.4 2.3-0.6 4.7-1.7 6.9-3.7 1.7-7.2 4-11.2 5.1-1.2 0.3-2.5 1.1-3.4-0.5q2.1-12.5 4.2-25 0.7-4.1 1.4-8.3z"/>
			<path id="&lt;Path&gt;" class="s90" d="m778.7 762.1c0.4 0.5 0.7 1 1.1 1.4 3.2 2.8 3.7 2.7 6.1-0.7 3.1-4.3 6.2-8.6 9.3-12.9 0.8-0.5 1.4-0.1 1.8 0.6 0.9 1 0.1 1.8-0.4 2.5-3.2 4.9-6.5 9.8-10.2 14.4-2.3 2.9-5.7 3.8-9.4 3.1-11.1-0.8-22.1 0-33.2-0.6-0.7 0-1.2 0.2-1.7 0.7-0.7 0.3-1.5 0.2-2.3 0.5-1.5 0.6-3.1-0.5-4.6 0.3-3.6-2.4-7.4-4.3-10.7-7-0.1-0.7 0.4-0.9 0.9-1.1 2.2-0.7 4.5-1.2 6.9-1.1 8.3 0 16.5-0.3 24.8 0.1 6.1 0.2 12.3 0.4 18.5 0.3 1-0.1 1.8-1.7 3.1-0.5z"/>
			<path id="&lt;Path&gt;" class="s91" d="m536.5 823.1c3.6-0.9 7.1-2.1 10.4-3.8 1-0.6 2.1-1.1 3.3-1.3 1.3 0 1.1 1 1 1.8q-0.1 2.1-0.6 4.2-0.7 4.2 0.8 8.2c0 2.5 0.3 4.8 1.7 7 0.4 0.6-0.2 1-0.8 1.3-0.5 0.5-0.9 1.1-1.5 1.3-5.9 2.7-11.8 5.3-17.9 7.5-0.6-6.3 1.4-12.3 2.2-18.4 0.4-2.6 0.9-5.2 1.4-7.8z"/>
			<path id="&lt;Path&gt;" class="s83" d="m783.8 861q0.8 1 1.5 2-15.6 5.4-31.3 10.8c-3.7 1.3-7.3 2.7-11.1 3.8-5.2 1.6-10.3-1.1-11.2-5.8-0.4-2.4-0.2-4.7 0.6-7.1 4.8-14 9.5-28 14.2-42 1.7-0.9 2.8 0.3 4.1 1.2 0.7 2.8-0.4 5.4-1.1 8.1-5 9.3-7.7 19.5-11.1 29.5-0.8 2.3-1.3 4.6-0.1 7 1.3 2.6 4.8 4.9 6.8 3.8 2.5-1.5 5.4-1.9 8-3.1 4.4-1.4 8.7-3.4 13.4-4.1 1.1-0.2 1.8-1.3 2.9-1.4 0.7-0.2 1.3-0.4 2-0.7 3-1.3 6.2-2.2 9.3-3.2 1.5-0.5 2.5-0.2 3.1 1.2z"/>
			<path id="&lt;Path&gt;" class="s92" d="m506.6 824.7c-1.8-4.4-3.9-8.7-0.2-13.2 1.8-2.3 3.5-4.6 5.3-6.9 7.2-9.7 14.5-19.3 21.8-29 2.7-3.7 1.6-8.7-2.6-12.3 3.7-0.1 7 1.1 8.7 4.6 1.7 3.3 1.4 6.7-1 9.8q-12.2 16.3-24.5 32.6-1.7 2.3-3.4 4.5c-2.1 2.8-1.5 5.8-0.9 8.8-0.7 1.5-1.5 2.7-3.2 1.1z"/>
			<path id="&lt;Path&gt;" class="s93" d="m750 824.2c-1.3-0.2-2.4-0.8-3.5-1.5 1-3.1 0.4-5.9-1.5-8.4q-10.9-14.5-21.8-29c-1.9-2.5-3.7-5.1-5.6-7.6-2.4-3.1-2.6-6.5-1-9.8 1.7-3.6 5-4.6 8.8-4.6q-0.3 0.4-0.6 0.9 0 0.2 0 0.4c-3.8 4.8-2.8 8.9 0.9 13.7 8.4 10.6 16.2 21.7 24.6 32.4 3.2 4.2 2.9 10.2 0.7 12.9-0.3 0.3-0.6 0.6-1 0.6z"/>
			<path id="&lt;Path&gt;" class="s83" d="m506.6 824.7q1.6-0.5 3.2-1.1 5.6 16.5 11.2 33c1.1 3.2 2.3 6.3 3.3 9.4 1.5 5.1-0.3 9.3-4.7 11.4-1.9 0.9-4.1 0.9-6 0.3-14.1-4.8-28.2-9.7-42.3-14.6q0.8-1 1.6-2c0.2-0.9 1-1.2 1.7-1 3.5 0.7 7 1.3 10.3 2.9 0.6 0.2 1.2 0.5 1.8 0.7 5.4 1.7 10.8 3.5 16.2 5.4q0.3 0.1 0.7 0.3c2.4 1.1 5 1.4 7.3 2.8 2 1.2 5.6-0.9 6.9-3.6 0.8-1.5 1-3 0.6-4.7-1.3-5.4-3-10.7-5.2-15.8-1.2-2.8-2.3-5.5-2-8.6q-2.3-7.4-4.6-14.8z"/>
			<path id="&lt;Path&gt;" class="s94" d="m769 714.5c-1.4 0.2-2.6 1.1-3.8 2-6.5 5-14.1 8.1-21.4 11.6-0.4 0.2-1 0.2-1.5 0.2-1.1-1.1 0.3-1.5 0.8-2 6.3-6.5 13-12.7 19.3-19.2 3.4-3.6 3.4-12.7 0.2-16-0.6-0.7-1.6-1.4-1.3-2.6 6.6 0.3 11.9 4 13.4 10 1.5 5.8 0.6 11.7-5.7 16z"/>
			<path id="&lt;Path&gt;" class="s63" d="m761.3 688.5c2.9 2.7 4.7 5.9 4.8 10 0.1 3.3-0.3 6.5-2.6 8.9-6.3 6.5-12.7 12.8-19.1 19.2-0.7 0.6-1.7 0.8-2.1 1.7-0.3 0.3-0.6 0.4-0.8 0.7-10.3 10-20.3 20.3-30.8 30.1-5.5 5.1-7.5 10.8-5.2 17.9 0.9 0.4 1.6 0.9 1.8 1.9 0.6 3.9 1.3 7.9 1.9 11.8 0.1 0.9 0.2 1.9-0.6 2.7-0.5 0.3-0.9 0.8-1.6 0.8-1.5-0.2-1.4-1.5-1.7-2.5-0.7-1.8-0.5-3.9-1.1-5.8-0.9-2.6-0.8-5.3-1.3-8-0.5-2.7-1.3-5.4-1.3-8.3 0-3.8 1.2-7.2 3.9-10 6.2-6.5 12.7-12.9 19.7-18.6 1.3-1 0.8-2.5 1.8-3.4 1.2-0.5 2.1-1.3 3.1-2.2 8-7.4 15.7-15.1 23.3-22.8 2-2.1 4.4-3.6 6.2-5.8 3.5-4.4 3.8-9.1 1.7-14.2-0.3-0.9-0.9-1.6-0.5-2.6q-0.5-1.1-1-2.2 0.8 0.4 1.5 0.7z"/>
			<path id="&lt;Path&gt;" class="s95" d="m649.1 835.4q-2.8-1.3-5.6-2.6c-4.4-2.9-9.1-5.1-13.9-7.3-3.4-1.6-7-1.1-10.3 0.6-9 4.6-18 9.4-26.9 14.1q-19.3 10.2-38.6 20.4c-5.6 2.9-10.9 2.5-16-1.1-1.5-1.1-2.2-2.7-3.3-4.1q-0.1-0.5-0.2-1c2.7 2.3 5.1 5 8.9 5.8 2.9 0.6 5.7 0.5 8.2-0.8 9.6-4.9 19.1-9.9 28.6-14.9 7.2-3.8 14.4-7.7 21.7-11.5 5.1-2.6 10.3-5.2 15.4-8 4.8-2.6 9.5-2.7 14.3 0 1.5 0.9 3.2 1.5 4.9 2.3 5.1 0.5 9.2 3.6 13.4 6.2 0.3 0.2 0.3 0.6 0.2 0.9-0.1 0.5-0.4 0.8-0.8 1z"/>
			<path id="&lt;Path&gt;" class="s96" d="m707.9 792.9c-0.3-5.4-1.6-10.6-2.4-15.9 1.7-1.9 3.6-2.8 6.2-2 0.1 5 1.5 9.9 2.2 14.8 1 6.5 2.2 13 3.3 19.5-2.1 0.1-3.8 1.2-5.6 2.1-0.6 0.1-1 0-1.1-0.7-0.9-5.7-2.3-11.4-2.7-17.3 0-0.2 0.1-0.3 0.1-0.5z"/>
			<path id="&lt;Path&gt;" class="s97" d="m679.4 674.1c-3 0.1-5-1.8-7-3.6-4.5-8.2-8.6-16.7-12.6-25.1 0.7-1.3 1.4-2.6 3.2-2.6 4.4 7.8 8.1 16.1 12.2 24.1 1.3 2.5 2.5 5 4.2 7.2z"/>
			<path id="&lt;Path&gt;" class="s98" d="m542.6 761.9c1.6 1.9 2.8 3.9 3 6.5-0.3-0.3-0.7-0.6-1-0.9-10.1-9.9-20.3-19.8-30.4-29.9-1.4-1.4-3.3-2.3-4.5-4.1-0.2-1.7 1.4-1.4 2.1-2 1-0.8 1.6 0.1 2.2 0.6 5.9 5.1 11.7 10.3 17.1 16.1 0.9 1.2 1.9 2.3 3 3.4 3.2 3.1 5.3 7.1 8.5 10.3z"/>
			<path id="&lt;Path&gt;" class="s21" d="m663 642.8q-0.8 2.2-3.2 2.6c-4.4-7.8-7.9-16-11.7-24.1 0.9-1.3 1.6-3 3.7-1.5 4.2 7.4 7.6 15.2 11.2 23z"/>
			<path id="&lt;Path&gt;" class="s99" d="m512.3 732.5q-1.3 0.5-2.6 1c-5.4-5.4-10.8-10.8-16.3-16.1-2.3-2.2-5-3.9-6.6-6.7-1.8-2.9-3.1-5.9-2.2-9.5 0.2 3.5 2 6.1 4.5 8.5 6 5.7 11.8 11.6 17.7 17.4 0.9 0.9 1.7 2 3 2.4 2.3 0.1 3.1 1 2.5 3z"/>
			<path id="&lt;Path&gt;" class="s100" d="m778.7 762.1c-1 0.3-2 0.7-3.1 0.5 5.3-5.7 9.2-12.5 13.8-18.8 2.8-3.7 5.4-7.6 8.1-11.3 0.7-0.5 1-1.8 2.2-1.3 0.7 0.2 0.5 0.8 0.4 1.3-4.7 7-9.5 14.1-14.3 21.1-2.1 3-3.9 6.4-7.1 8.5z"/>
			<path id="&lt;Path&gt;" class="s101" d="m480.6 762.6q-1.3-0.1-2.7-0.3c-2.7-1.4-4.1-3.9-5.8-6.3-5-7.3-10-14.7-15.1-22-0.5-3 1.3-1.1 2.2-1 5.8 8.2 11.6 16.5 17.3 24.8 1.2 1.7 2.7 3.2 4.1 4.8z"/>
			<path id="&lt;Path&gt;" class="s102" d="m459.2 733q-1.1 0.5-2.2 1c-3.3-3.8-5.8-8.1-8.8-12.2-0.6-0.9-0.5-1.7 0.1-2.6 1.3 0.6 2.3 1.5 3.1 2.8 2.6 3.7 5.2 7.3 7.8 11z"/>
			<path id="&lt;Path&gt;" class="s103" d="m800.1 732.5c-0.8-0.6-1.7-0.5-2.6 0q3.2-4.6 6.4-9.3c0.9-0.4 1.9-1.1 2.4 0.6-1.7 3.1-3.6 6.2-6.2 8.7z"/>
			<path id="&lt;Path&gt;" class="s56" d="m806.3 723.8q-1.2-0.3-2.4-0.6c1.4-3 4-4.4 7.1-5-1 2.3-3.2 3.7-4.7 5.6z"/>
			<path id="&lt;Path&gt;" class="s104" d="m536.4 735.6q-4.4-4.2-8.7-8.3c-2.2 0-3-2-4.3-3.1-4.5-4-9-8-12.6-12.8-0.3-0.4-0.5-0.7-0.7-1.1-0.8-1.2-0.9-2.7-1.3-4-0.3-4.6 0.9-8.7 4.7-11.6 3-2.2 6.6-2.1 10-2.7q25.9-3.8 51.7-7.5c4-0.5 7.8-0.9 10.7-4.2 0.9-1.1 1.6-2.4 2.3-3.7 8.4-17.1 17.3-34 25.2-51.4 4.3-9.3 14.2-11.4 20.8-4.4 1.4 0.5 2.3 1.4 2.9 2.7 5.9 12.4 12.1 24.6 18.2 36.9 0.7 1.4 0.6 3.1 1.9 4.1 2.7 4.4 4.3 9.3 6.7 13.8 0.3 0.5 0.3 0.9-0.2 1.3-6.1 2.5-12.1 5.1-18 7.8q-23.1 10.5-46.3 20.7c-8.6 3.8-17.1 7.6-25.7 11.4-7.6 3.4-15.2 6.8-22.8 10.4-3.9 1.8-7.9 3.5-11.8 5.3-0.9 0.4-1.8 0.8-2.7 0.4z"/>
			<path id="&lt;Path&gt;" class="s105" d="m510.3 709.9q6.6 7.4 14 14c1.2 1 2.3 2.2 3.4 3.4 2.7 6.5 8.5 10.4 13.2 15.2 2.2 2.3 4.6 4.6 6.9 6.8 1.3 1.3 1 2.2-0.6 2.9-2.2 0.9-4.3 2-6.5 2.8-2.1 0.8-2.4 1.7-0.7 3.2 1.1 1 2.3 2 2.6 3.7q-6.2-6.2-12.3-12.3c-4-3.9-8-7.9-11.9-11.9-2-2-1.8-3 0.8-4.2 1.1-0.5 2.2-0.8 3.3-1.3 3-1.4 3.4-2.6 1-4.9-4.2-3.9-8.5-7.8-12.5-12-0.9-1-1.8-1.9-0.7-3.3q-0.3-0.8-0.6-1.6c-0.1-0.5 0.1-0.7 0.6-0.5z"/>
			<path id="&lt;Path&gt;" class="s106" d="m510.3 712c2.8 4.3 6.8 7.5 10.5 11 1.8 1.8 3.6 3.4 5.3 5.2 1.8 1.8 1.6 2.9-0.7 4.1-1.8 0.9-3.7 1.6-5.6 2.4-1.8 0.8-2.1 1.8-0.6 3.3q4.4 4.4 8.8 8.8c0.8 0.9 1.5 1.9 2.3 2.8-1.2-0.3-1.9-1.2-2.6-2q-7.7-7.6-15.4-15.1-1.2-1.5-2.5-3c-2.1-2.7-4.7-4.9-7-7.4-0.8-0.9-1.6-1.7-2.3-2.7-1.1-1.8-0.8-3.2 1.3-4 2.8-1.2 5.5-2.6 8.5-3.4z"/>
			<path id="&lt;Path&gt;" class="s33" d="m671.7 670.5c-2.8 0.9-5.2 2.6-7.7 4-1.4 0.5-1.8-0.5-2.2-1.4-1.4-2.9-2.9-5.7-3.8-8.8-0.2-0.8-0.7-1.4-1.2-2-2.2-3.5-3.8-7.3-5.7-11.1-0.4-0.9-0.7-1.7 0.6-2.2 6.5-2.9 7.5-2.6 10.7 4q2.8 5.8 5.6 11.7c1 2.1 2.1 4 3.7 5.8z"/>
			<path id="&lt;Path&gt;" class="s88" d="m651.7 649c1.6 4.5 4.2 8.5 6.1 12.8-0.4 0.7 0 1.3 0 2 0 1.4 0 1.4-1.6 1.1-4.7-9.4-9.5-18.8-14.2-28.3-2.7-5.2-4.9-10.7-7.8-15.8 2.6-0.9 3.7 0.8 4.7 2.7 3.6 7.4 7.3 14.8 10.9 22.2 0.6 1.1 1.3 2.2 1.9 3.3z"/>
			<path id="&lt;Path&gt;" class="s106" d="m510.3 709.9q-0.3 0.3-0.6 0.5c-0.6-1.3-0.9-2.7-0.9-4.1q0.8 1.8 1.5 3.6z"/>
			<path id="&lt;Path&gt;" class="s107" d="m848.3 875.3c0.3 3.3-0.2 6.4-1.8 9.3-3.5 2.8-7.2 4-11.4 1.5-2-1.1-3.8-2.5-5.5-3.9-10.1-7.7-20.5-15-30.5-22.7-3.3-2.6-6.7-2.2-10.2-1.1-1.8-0.6-3.5-1.5-5.2-2.4-1.2-0.6-1.8-1.4-1.8-2.7 3.7-2.1 7.7-3.5 11.8-4.1 1.8-0.3 3.2 1 4.6 2 9 6.5 17.9 13.2 26.8 19.7q1.3 1 2.7 2c2.7 1.9 5.5 1.9 8.3 0.2 0.8-0.4 2-0.9 1.2-2.4-0.4-0.7 0.2-1.2 0.8-1.7q0.3-0.3 0.7-0.3c3.7 1.4 7.3 3 9.5 6.6z"/>
			<path id="&lt;Path&gt;" class="s108" d="m847.9 831.4c-0.7 2-0.6 4.1-0.3 6.2 0.5 4.5 0.2 9.1 0.2 13.7-0.8 1.2-1.6 1-2.7 0.4-2-1.1-3.7-2.8-5.9-3.7-0.4-3.5-0.9-7.1-0.8-10.7 0.1-2.8 0-5.6 0-8.4-0.1-3.1 1.1-5.4 3.4-7.3 1.9-1.7 4.1-3.1 6.4-4.3 3.6-3.4 7.9-5.8 11.8-8.7 0.6-0.4 1.3-0.8 2-0.1 1.7 1.5 0.5 2.6-0.6 3.6-2.3 1.8-4.7 3.4-7 5.1-0.7 0.5-1.5 0.9-2.2 1.4-3.6 2.6-3.7 2.6-0.9 6 0.6 0.7 0.9 1.5 1 2.3-1.3 1.7-3.3 2.6-4.4 4.5z"/>
			<path id="&lt;Path&gt;" class="s109" d="m840.3 847.7c2.8 0.5 4.7 3 7.5 3.6 0.1 8 0 16 0.5 24-3.3-1.5-6.2-3.7-9.2-5.6q-0.7-0.4-0.6-1.3c0.8-5.9 0.2-11.9 0.4-17.9 0.1-1-0.3-2.4 1.4-2.8z"/>
			<path id="&lt;Path&gt;" class="s110" d="m789 858c5.1-2.1 9-0.2 13.1 2.9 10.5 8.1 21.3 15.8 31.9 23.7 3.7 2.8 7.5 2.9 11.4 0.4 0.3-0.2 0.7-0.3 1.1-0.4q-0.1 0.2-0.3 0.5c-4.3 3.9-7.8 4.2-12.5 0.8-8.2-5.9-16.2-11.9-24.2-17.9-3.5-2.6-7.1-5.2-10.6-7.9-2.9-2.2-6-2.9-9.5-1.4-0.4 0.2-1 0.2-1.5 0.3q-0.1-0.2-0.2-0.3c0-1 0.7-0.8 1.3-0.7z"/>
			<path id="&lt;Path&gt;" class="s98" d="m847.9 831.4c0.5-2.1 2.2-3.2 3.6-4.6 0-1.2 0.7-2 1.6-2.6 4.4-3.2 8.8-6.4 13.2-9.5 1-0.6 1.9-1.3 3.1-0.4q1.2-0.9 2.5-1.8c0.9 0.1 1.2 0.5 0.6 1.3q-12.3 8.8-24.6 17.6z"/>
			<path id="&lt;Path&gt;" class="s99" d="m872.5 813.8q-0.3-0.7-0.6-1.3 9-6.4 17.9-12.9c-0.3 2.2-1.9 3.4-3.4 4.5-4.6 3.3-9.3 6.5-13.9 9.7z"/>
			<path id="&lt;Path&gt;" class="s111" d="m410.1 885.1c0 0-0.1 0.1-0.1 0.1-2.5-4-2.3-8.5-2-13 2.1-2.9 4.7-5.1 8.5-5.3 1.1 0.4 1.3 1.5 2 2.2 0.2 0.4 0.8 0.9 0.6 1.3-1.1 2.3 0.7 2.6 2 3.2 3.1 1.5 5.8 0.6 8.3-1.4 7.8-5.9 15.8-11.6 23.6-17.5q2.9-2.2 5.9-4.2c2-1.3 4.1-1.6 6.6-0.7 4.3 1.6 8.7 3 13.1 4.5 1 0.7 2.7 0.3 3.2 1.9 0 2.8-2.4 3.1-4.2 4.2-0.6 0.4-1.3 0.6-2 0.9-2.6-0.5-4.9-1.5-7.4-2.3h0.1c-4.5-2.3-8.6-2.1-12.5 1.5-1.5 1.4-3.3 2.6-5 3.8-8.8 6.4-17.5 13-26.3 19.4-2.7 2-5.2 4.2-9 3.7-2.1-0.3-3.7-1.3-5.4-2.3z"/>
			<path id="&lt;Path&gt;" class="s112" d="m408.5 845.1c0-3.2-0.4-6.4 0.3-9.5 0.4-1.4 0.1-2.9-0.5-4.2-1.5-2.6-4.6-3.5-6.3-5.9-0.2-1.4 0.2-2.4 1.3-3.3 2.2-1.7 2.1-2.4-0.1-4-3.1-2.3-6.1-4.6-9.3-6.7-1.4-1-2.6-2.2-0.8-3.9 0.8-0.8 1.5-0.1 2.2 0.3 2.1 1.5 4.3 2.9 6.3 4.6 4.5 3 8.9 6.3 13.5 9.3 0.8 0.5 0.9 1.1 1.2 1.8 1.2 1.7 1.6 3.5 1.6 5.5q-0.1 4-0.1 7.9c0.1 1.9 0 3.8-0.8 5.5-2 1.1-3.9 2.3-6 3.3-1.1 0.5-1.9 0.3-2.5-0.7z"/>
			<path id="&lt;Path&gt;" class="s113" d="m408.5 845.1c2.7-0.4 4.8-2.3 7.4-3 1.5 0.1 1.3 1.2 1.3 2.1q0.2 10.7 0 21.4c0 0.9 0.1 1.9-1.2 2.1-2.8 1.3-5.1 3.5-8 4.5 0.7-9 0.2-18.1 0.5-27.1z"/>
			<path id="&lt;Path&gt;" class="s114" d="m402.7 825.3c2 1.9 4.9 3 5.6 6.1q-11.5-8.2-23-16.4c-0.4-0.3-0.7-0.7-1.1-1.1 0.1-0.7 0.6-0.7 1.1-0.5q0.8 0.4 1.6 0.9c1-0.8 1.8-0.3 2.7 0.3q5.6 4 11.2 7.9c1.1 0.7 1.1 1.9 1.9 2.8z"/>
			<path id="&lt;Path&gt;" class="s115" d="m385.3 813.4q-0.5 0.2-1.1 0.5c-5.5-3.3-10.6-7.1-15.7-11-1.4-1.1-2.3-2.5-2.6-4.3 3.9 4.4 9.2 7 13.7 10.5q2.9 2.2 5.7 4.3z"/>
			<path id="&lt;Path&gt;" class="s104" d="m401.2 813.5q-3.9-2.6-7.7-5.1c-0.5 0.2-1 0.6-1.5 0-1.9-2.5-4.8-3.8-7.2-5.7-1.4-1.1-2.7-2.2-3.6-3.7-1.5-5-0.9-9.2 6-11.2 10.8-3.2 21.5-6.6 32.3-9.8 3.5-1 5.4-3.2 6.4-6.7 3.4-11 7-22 10.4-32.9 0.8-2.7 2.2-4.9 5.2-5.4 3.2-0.4 6 0.3 7.9 3.3 0.9 1.4 1.6 2.9 2.9 3.9 2.8 1.2 3.5 4.2 5.3 6.2 1.1 1.3 2.4 2.6 2.4 4.5 2.9 5.3 6.8 9.9 10 14.9 0.3 0.5 0.6 1 0.9 1.5 0.9 1.2-0.1 1.6-0.9 2.1-6.8 4.2-13.5 8.6-20.2 12.9-9.6 6.2-19.1 12.3-28.6 18.5-5.9 3.9-11.8 7.7-17.7 11.6-0.7 0.5-1.4 1-2.3 1.1z"/>
			<path id="&lt;Path&gt;" class="s56" d="m381.2 799c3.8 3.6 8.3 6.1 12.3 9.4 0.2 1.1 1 1.9 2 2.5q5.3 3.8 10.7 7.7c2 1.4 2 2-0.1 3.4-1.3 0.9-2.7 1.7-3.4 3.3-5.5-3.4-10.7-7.1-15.8-11-0.3-1.7 1-2.4 2-3.3 2.3-1.8 2.3-3-0.1-4.8q-2.3-1.7-4.7-3.4c-1.4-0.9-2.5-2.1-2.9-3.8z"/>
			<path id="&lt;Path&gt;" class="s102" d="m460 750.9c-3-3.2-5.2-7.1-7.7-10.7 1.1-0.2 2.1 0.1 2.7 1 2 3.1 4.6 5.8 6.1 9.2q-0.5 0.3-1.1 0.5z"/>
			<path id="&lt;Path&gt;" class="s104" d="m861.7 809.2q-6.4 4.4-12.8 8.7c-1.8 0.1-3.2-0.7-4.6-1.7-2.6-1.9-5.4-3.3-8-5.1-6.3-4.5-13-8.7-19.6-12.8-6.8-4.3-13.2-9.2-20.1-13.2-6.5-3.6-12.3-8.2-18.7-11.8-2.3-1.2-2.3-2.4-0.2-3.9 4.1 0.2 7.1-1.3 9.3-4.8 2.9-4.7 6.6-8.8 9.2-13.6 1.3-4.1 4.4-7.1 6.7-10.6 0.2-0.3 0.6-0.2 0.9-0.2 1.3-1 2-2.4 2.8-3.7 1.8-3 4.5-3.9 7.8-3.5 3 0.4 4.6 2.4 5.4 5.1 3.5 11.2 7.2 22.4 10.6 33.6 1 3.1 2.7 5.2 5.8 6.2 11 3.2 21.8 6.7 32.8 9.9 6.5 1.9 7.5 5.4 6 11.2-1.9 3.3-5.3 4.7-8 6.9-1.1 0.8-2.1 1.5-2.8 2.7-0.6 1-1.6 1-2.5 0.6z"/>
			<path id="&lt;Path&gt;" class="s56" d="m861.7 809.2c3-2.8 6.8-4.8 10-7.4q1.6-1.4 3.3-2.8c-0.5 2.2-2.1 3.4-3.8 4.5-1.2 0.8-2.4 1.7-3.5 2.5-2.8 2.1-2.9 3.5-0.1 5.4 1 0.8 2 1.4 1.8 2.9q-9 6.2-17.9 12.5c-0.8-1.2-2-2-3.2-2.9-2.1-1.6-2.1-2.5 0-4 3.3-2.5 6.8-4.8 10.1-7.3 1.3-0.9 2.7-1.7 3.3-3.4z"/>
			<path id="&lt;Path&gt;" class="s103" d="m803.8 740.2c-2.4 3.7-4.6 7.5-7.6 10.8q-0.5-0.6-1-1.1c2-2.9 4-5.9 6-8.7 0.6-0.9 1.3-2.1 2.6-1z"/>
			<path id="&lt;Path&gt;" class="s95" d="m410.1 885.1c0.8 0.3 1.6 0.7 2.4 0.9 3.2 1 6.3 1.1 9.2-1 11.5-8.5 23-17 34.4-25.5 4.4-3.2 7.4-3.3 12.2-0.5-0.5-0.1-1-0.1-1.5-0.3-3.9-1.7-7.1-0.4-10.3 2q-17.2 12.9-34.6 25.5c-4.3 3.1-8 2.6-11.8-1.1z"/>
			<path id="&lt;Path&gt;" class="s116" d="m468.2 859q3.7 1 7.3 2c3.5-0.9 6.4 0.8 9.3 2.2 1 0.4 0.6 1.2 0.2 1.9-4-1.5-8-2.9-12.1-4-1.4-1-3.4-0.8-4.7-2.1z"/>
			<path id="&lt;Path&gt;" class="s117" d="m783.8 861c-4.3 1.1-8.5 2.6-12.6 4.1-0.8-1.1-0.4-1.9 0.7-2.3 4.6-1.9 9.4-3.3 14.1-4.8 1-0.3 1.6 0.2 2 1q-0.1 0-0.1 0c-1 1.3-2.9 1-4.1 2z"/>
			<path id="&lt;Path&gt;" class="s118" d="m552.3 840.5c-1.4-2.5-2.2-5.3-2.5-8.2 0.9-0.8 1.5-0.2 2 0.5 5.1 5.8 10.3 4.9 15.2 2.2 17.2-9.2 34.6-18.2 51.9-27.3 3.7-2 7.5-2.3 11.4-0.3 8 4 15.9 8.3 23.8 12.4 0.9 0.5 2.1 0.8 1.6 2.3 0.1 1.8-1.7 1.7-2.6 2.5-2.6 0.3-4.3-0.9-5.5-3-5-3.1-10.3-5.7-15.6-8.3-3.4-1.6-6.6-0.7-9.8 0.9-17.7 9.4-35.5 18.6-53.2 28-6.1 3.3-11.5 2.8-16.7-1.7z"/>
			<path id="&lt;Path&gt;" class="s119" d="m647.6 821.6q2.5 1 5.1 2.1c2.4 0 4.5 1.2 6.6 2.3 5.5 2.9 11.1 5.6 16.5 8.7 0.8 0.5 2.2 0.8 1.7 2.4-0.3 1.3-1.4 2.1-2.6 2.6-3.1 1.4-6.1 3.4-9.8 3.5-5.5-2.7-11-5.3-16-8.7-4.1-2.7-8.9-4.3-12.8-7.2 3.3-2.7 7.7-3.4 11.3-5.7z"/>
			<path id="&lt;Path&gt;" class="s120" d="m649.1 834.5c5.5 2.2 10.4 5.8 16 8 4.5 0.3 8 3 11.7 4.9 6.6 3.3 13 6.9 19.6 10.1 4.6 2.3 9.1 2.1 13.2-0.9 4.1-3.1 5.3-7.4 4.6-12.3-1.2-7.7-2.7-15.3-3.8-23-1.6-8.5-3.1-16.9-4.4-25.4-0.2-1-0.8-2.3 1.1-2.5q0.4-0.3 0.8-0.5c1.4 3.5 1.4 7.2 2.2 10.8 0.5 2.6 1 5.1 1.5 7.7q1.7 10.2 3.4 20.5c0.9 5.5 2.4 11 2.6 16.5 0.4 9-7.6 15.3-15.8 13.9-1.9-0.3-3.6-1-5.2-1.9q-22.4-11.6-44.7-23.3c-1-0.5-1.9-1.2-2.8-1.7q0-0.5 0-0.9z"/>
			<path id="&lt;Path&gt;" class="s121" d="m654.8 821.7c-8.5-4.5-17-8.9-25.5-13.4-3.2-1.7-6.4-1.2-9.5 0.4-8.8 4.6-17.7 9.3-26.5 13.9-8.7 4.6-17.4 9.3-26.1 13.8-7.5 3.9-12.5 2.6-17.5-4.1-1.8-4.8-0.1-9.5 0.5-14.3q2.6-15 5.2-30 0.2-1.1 0.4-2.2 0.6-3.4 1.2-6.7c1.1-1.5 2.8-1.6 4.4-1.9 15.3-2.9 30.3-6.8 45.1-11.8 17.5-5.9 34.5-13.3 51-21.8 20.9-10.8 40.6-23.5 59.4-37.7 4.1-3.1 8.2-6.3 12.1-9.8 1.4-1.2 2.9-2.2 4.7-2.6q1.7 0.8 3.4 1.6c6 1.7 6.5 10.6 3.9 14.9-2.2 3.5-5.2 6.2-8.1 8.9-6.1 5.4-11.5 11.4-17.5 16.9-6.7 6.4-13.3 13-19.9 19.4-3.2 3.1-3.8 6.7-3.7 10.8 0 0.8 0.9 1.2 0.9 2 1.3 10.5 3.5 20.8 5.2 31.3 0.1 0.8 0.6 1.6 0.8 2.4-0.4 0.9-0.3 1.7-0.1 2.7 1.4 7.7 3 15.3 3.6 23.1 0.5 7.2-7.9 15.5-17.5 11.2-6.2-2.7-12-6.1-18-9.2-2.8-1.5-5.6-2.9-8.4-4.4-1.5-0.8-3-1.6-3.5-3.4z"/>
			<path id="&lt;Path&gt;" class="s122" d="m536.4 735.6c3-2.5 6.7-3.7 10.1-5.3q20-9.1 40.1-18c12.8-5.7 25.6-11.3 38.4-17 9.7-4.3 19.4-8.8 29.1-13.2 2.8-1.3 5.7-2.6 8.9-2.9 1-0.8 1.6 0 2.1 0.6 1.2 1.4 2.5 2.6 4 3.6 7.2 1.6 14.5 2.3 21.7 3.5 1.8 0.3 3.7 0.6 5.5 1 1 1.4 0 1.9-1.1 2.4-3 1.6-6.2 2.8-9.3 4.2-8.3 3.5-16.6 7.2-24.8 11-11.9 5.4-23.9 10.5-35.7 16-8.9 4.2-17.9 8-26.8 12.2-7 3.3-14.2 6.1-21.3 9.3q-9.7 4.5-19.6 8.8c-1.3 0.5-2.5 0.9-3.9 0.7-5.6-5.8-12-10.9-17.4-16.9z"/>
			<path id="&lt;Path&gt;" class="s123" d="m733.7 693.5c-2.5 3-5.7 5.4-8.8 7.8-18.4 14.8-38 28-58.9 39.3-19.3 10.5-39.2 19.5-60.1 26.5-14.9 4.9-30.1 8.9-45.6 11.7-1.1 0.1-2.2 0.2-3.3 0.3q1-5.7 2-11.3c1.7-2.7 4.6-3.4 7.1-4.7 7.8-3.7 15.9-7 23.8-10.5 11.5-5.2 23-10.3 34.6-15.4 6-2.7 11.9-5.7 18.1-8.2 9.8-4.1 19.2-8.9 28.9-13 7.3-3 14.6-6.2 21.6-9.8 2.6-1.4 5.4-2.3 8-3.4 5.6-2.5 11.1-4.8 16.6-7.5 3-1.5 6.3-2.6 9.7-3.2 2.1 0.7 4.4 0.3 6.3 1.4z"/>
			<path id="&lt;Path&gt;" class="s124" d="m727.4 692.1c-3.5 2.7-7.9 3.9-11.9 5.8-11.5 5.5-23.3 10.2-34.9 15.7-11.7 5.5-23.7 10.4-35.5 15.6-10.3 4.6-20.5 9.4-30.8 14-12.2 5.4-24.3 11.1-36.6 16.2-4.7 1.9-9.2 4.2-13.7 6.3-1.6 0.8-3.3 1.4-5 2.1-0.1-1 0.3-1.8 0.4-2.7 0.5-4.1-0.4-7.8-3.7-10.6-0.7-0.6-1.2-1.3-1.9-2 3.3-2.5 7.3-3.7 11-5.4 9.8-4.6 19.7-9 29.6-13.4 18.3-8.1 36.7-16.1 55-24.3 10.2-4.6 20.5-9.3 30.7-13.9 4.3-2 8.6-3.8 13-5.6 1.1-0.5 2.3-1 3.2-2 1.3 0.1 2.7-0.1 4.1 0.4q12 1.7 24 3.5c1 0.1 2 0.2 3 0.3z"/>
			<path id="&lt;Path&gt;" class="s125" d="m760.8 690c3.6 3.6 4.3 10.8 1.4 15.4-1 1.5-2.1 3-3.4 4.1-6.9 6-13 12.9-19.6 19.2-3.5 3.3-7.1 6.6-10.6 9.9-4 3-8.3 5.6-13.2 6.8-0.8 0.2-1.6 0.6-2.4 0.3-1.4-1-0.9-2 0.1-2.9 2.4-2.3 4.9-4.4 7.2-6.8 6.9-7.2 14.3-13.9 21.4-20.9 5.2-5.1 5.6-9.6 1.8-15.8-0.5-0.7-1.3-1.3-0.2-2.1 4.8-2.2 9.5-4.4 14.3-6.5 1-0.5 2.1-0.5 3.2-0.7z"/>
			<path id="&lt;Path&gt;" class="s126" d="m743.3 697.2c5.8 7 5.5 12.7-0.9 19.1-1.7 1.7-3.3 3.5-5.1 5-6.5 5.6-12.2 12.1-18.4 18-1.9 1.9-3.9 3.7-5.8 5.5 0.5 1.2-0.4 1.9-1.1 2.6-3.4 3.5-6.9 7-10.4 10.5-2.2 2.1-4.2 4.2-4.9 7.3-0.2 0.5-0.3 1.2-1 1.4-0.9-0.1-1.6 0.4-2.3 1-0.7 0.6-1.4 1-2.2 0.2-1.7-5-1-9.3 3-13.1 4.8-4.6 9.3-9.6 14.2-14.1 7.2-6.5 13.7-13.7 20.9-20.3 2.5-2.4 5-4.8 7.6-7.1 5.6-5.3 5.8-12.9 0.2-18.1 2.3-0.2 4.3 1 6.2 2.1z"/>
			<path id="&lt;Path&gt;" class="s127" d="m416 867.7q-0.1-12.8-0.1-25.6 0.7-2.5 0.7-5.2c0.6-1.5 1.9-2.1 3.3-2.6 10.6-4.2 21.1-8.8 31.1-14.4 12.3-6.9 23.8-15 34.7-23.9 5.1-4.3 9.9-8.9 14.7-13.5 3.2-3 6.1-6.2 9-9.4 1.5-1.7 2.9-3.3 5-4.2q1 0.2 2 0.5c5.3 1.9 6.8 6.9 3.4 11.4-6.5 9-13.1 18-20 26.6-3.1 3.9-3.7 7.7-1.9 12 1.2 2.9 1.7 6 3.1 8.8 2.1 7.6 5.1 15 7.5 22.6 1.4 4.6-1.1 9.3-5.7 10.6-1.9 0.5-3.6 0-5.2-0.6-6.3-2.3-12.6-4.3-18.8-6.4-4.9-1.9-9.9-3.4-14.8-5.1-2.7-0.9-5.5 0.1-7.9 1.9-9 6.8-18 13.5-27.1 20.1-1.3 1-2.7 1.9-4.3 2.2-3.5 0.7-6-0.5-7.6-3.7q-0.6-1.1-1.1-2.1z"/>
			<path id="&lt;Path&gt;" class="s123" d="m514.4 768.9c-0.9 2.1-2.5 3.5-3.9 5-11.5 12.3-23.8 23.7-37.5 33.5-12.6 9.1-26 16.8-40.2 23.1-5.3 2.4-10.8 4.3-16.2 6.4 0-2.4-0.1-4.8 0-7.2 0-2.2-0.4-4.2-1.6-6-0.5-1 0-1.5 0.9-2 8.1-5.4 16.4-10.7 24.6-16 11.9-7.6 23.6-15.3 35.5-22.9 5.9-3.7 11.8-7.4 17.5-11.4 1.8-1.2 3.7-1.6 5.5-2.5q7.7 0 15.4 0z"/>
			<path id="&lt;Path&gt;" class="s128" d="m499 768.9c-1.5 1.9-3.6 2.9-5.5 4.2-11.4 7.8-23.3 15-34.9 22.6-13.2 8.7-26.6 17.1-39.8 25.9-1.2 0.8-2.5 1.4-3.8 2.1-4.4-3.7-9.5-6.4-13.8-10.2 1.4-3 4.4-4.2 6.9-5.8 13.5-8.9 27-17.6 40.5-26.3 7.4-4.8 14.9-9.4 22.3-14.1 3.5 2.2 7.2 2 11.2 1.7 5.6-0.5 11.3-0.1 16.9-0.1z"/>
			<path id="&lt;Path&gt;" class="s129" d="m521.1 770.5c2.2-2.4 5.2-3.8 8-5.4 1.4-0.8 2.4 0.1 3.1 1.3 1.7 2.7 1.4 6.7-0.8 9.8-7.9 10.5-15.8 20.9-23.7 31.4-2.2 3-4.8 5.9-4.6 10-0.4 1.9-1.8 2.5-3.5 2.7-1.1 0.2-1.5-0.5-1.8-1.4-1.2-3.3-0.6-6.2 1.5-9 6.7-9 13.6-17.8 20.3-26.8q0.8-1.2 1.6-2.3c1.8-2.6 2-5.2 0.2-7.9-0.5-0.7-1.4-1.4-0.3-2.4z"/>
			<path id="&lt;Path&gt;" class="s130" d="m521.1 770.5c4 4.9 4.1 7.3 0.3 12.4-6.9 9.2-13.8 18.4-20.8 27.6-2.2 2.9-2.6 5.8-1.1 9 2.1 1.5 3.5 5.6 2.8 8-0.8 0.7-1.4 1.8-2.7 0.8-1.3-4-2.5-8.1-4.1-12-1-2.6-0.4-4.8 1.2-6.9 4.8-6.4 9.6-12.8 14.5-19.2 2.6-3.5 5.3-7 7.9-10.5 2.3-3.1 1.1-7.5-2.7-10.3 1.7-0.1 3.2 0.6 4.7 1.1z"/>
			<path id="&lt;Path&gt;" class="s131" d="m501.6 827.2q-1-3.8-2.1-7.7 1.8-0.9 3.6-1.9 3.3 9.7 6.7 19.4c0.3 0.8 0.6 1.7 1 2.5 0.7 1.4 1.3 2.8 1.4 4.4q-1.6 2.2-4.3 2c-2.2-1.1-2.2-3.4-2.8-5.3q-1.9-5.1-3.5-10.2c-0.3-1.1-0.2-2.1 0-3.2z"/>
			<path id="&lt;Path&gt;" class="s132" d="m511.7 843.7q-0.4-2.1-0.9-4.2 0.2 0 0.4 0c3.1 7.9 6 15.8 8.1 24 1.6 6-4.3 11.3-10.7 9.6-2-0.5-4.3-0.9-6-2.3 0.2-1.3 1-1.2 1.9-1 1 0.2 2 0.6 3 0.8 6.3 1.4 10.5-2.8 8.9-9.1-1.1-4.1-2.7-8-4-12.1q-0.5-1.5-0.9-2.9c-0.3-1-0.3-1.9 0.2-2.8z"/>
			<path id="&lt;Path&gt;" class="s133" d="m669.1 683.4c-2.6-0.5-4.6-2.1-6.1-4.2-2.6-4.6-4.5-9.5-6.8-14.3 1.1-0.8 0.6-2.3 1.6-3.1q3.1 6.4 6.2 12.7 2 4.8 5.1 8.9z"/>
			<path id="&lt;Path&gt;" class="s121" d="m840.3 847.7c-0.1 6-0.1 11.9-0.1 17.9 0 1.5-0.2 2.9-1.1 4.1 0 0 0.1 0.1 0.1 0.1-3.2 4.6-6.8 5.2-11.5 1.9-8.5-6.1-16.9-12.5-25.3-18.7-0.9-0.7-1.8-1.3-2.7-2-2.9-2.1-5.9-2.3-9.3-1.1-4 1.4-8 2.8-12 4.2-6.9 2.2-13.8 4.6-20.6 7q-4.5 1.6-7.9-1.8c-2.3-2.3-3.3-5-2.3-8.1q3.8-11.6 7.8-23.1c1.2-3.8 2.5-7.6 3.7-11.4 0.8-2.8 0.3-5.1-1.4-7.4-7-9.4-14.1-18.7-21-28-1.1-1.5-1.8-3.1-1.8-5 0-4.4 0.6-5.4 4.9-6.9q0.8-0.3 1.6-0.5c2.1 0.7 3.5 2.2 5 3.8 10.5 11.5 21.9 22 34.4 31.3 12 9 24.8 16.6 38.3 23.1 5.1 2.4 10.2 4.7 15.6 6.5 1.8 0.7 4 1.1 4.9 3.3q0.3 5.4 0.7 10.8z"/>
			<path id="&lt;Path&gt;" class="s123" d="m839.6 836.9q-23.4-8.1-44.3-21.3-19.6-12.3-36.3-28.2c-6.2-5.9-12-12.1-17.6-18.5 10.5 0 21-0.1 31.5-0.1 1.6 0 3.2 0.4 4.8 0.6-0.3 1.2-0.1 2.2 1.1 2.8 4 1.8 7.1 5 10.9 7.1 10.2 5.7 19.5 12.7 29.4 18.9 7 4.5 14.3 8.7 20.9 13.7 2.9 2.1 6.2 3.6 8.9 6-1.9 1.4-3.8 2.9-5.7 4.2-2.3 1.7-3.6 3.8-3.5 6.7 0 2.7-0.1 5.4-0.1 8.1z"/>
			<path id="&lt;Path&gt;" class="s113" d="m724.8 764.2c4.1 1.1 7.4 3.3 10.3 6.3 1 0.9 0.3 1.6-0.2 2.2-2 3-1.6 5.8 0.4 8.5 6.9 9.3 13.8 18.6 20.9 27.7 3.2 4 3.4 8 1.5 12.4-0.3 0.6-0.5 1.5-1.6 1.2-1.9 0-3-1.3-3.9-2.7 1.5-4.9-1.5-8.4-4.1-11.7-8.3-10.7-16.2-21.6-24.3-32.4-2.7-3.5-2.3-7.5 1.1-11.5z"/>
			<path id="&lt;Path&gt;" class="s134" d="m756.1 821.5c2.3-4.6 1.7-8.5-1.5-12.5-6.8-8.5-13.2-17.4-19.7-26.1-3.9-5.1-3.8-7.5 0.2-12.4 1.5-0.5 3-1.2 4.7-1.1-4.5 3.3-5.1 6.9-1.7 11.4q10.5 14.2 21.1 28.2c1.8 2.3 2.6 4.6 1.4 7.5-1.5 3.9-2.7 7.9-4 11.8-1.2 1-2.2 0.1-3.1-0.5q-0.4-3.9 2.6-6.3z"/>
			<path id="&lt;Path&gt;" class="s135" d="m788 859c-5.8 1.7-11.6 2.9-16.8 6.1q-0.5 0-1 0.1c-0.6 0.3-1.2 0.3-1.8 0.4-1.9-0.3-3.8-0.7-5.3-1.9-1.2-0.9-1.9-2-1.4-3.5 2.2-1.9 5.1-2 7.7-3.1 3-1.3 6.3-2 9.3-3.2 1.4-0.3 2.6-1.6 4.2-0.5 1.5 2.2 4.5 2.5 6.1 4.6q-0.5 0.5-1 1z"/>
			<path id="&lt;Path&gt;" class="s136" d="m724.9 764.2c-0.2 0.6-0.5 1.3-0.8 1.9-1.8 3.5-1.7 6.9 0.8 10.2 8.4 11 16.6 22.1 24.9 33.1 2.3 3 4 6.1 2.7 10.1 0.4 1.2 0.5 2.4 0.1 3.6-0.9 2.4-1.6 4.9-2.5 7.2-0.3 0.7-0.3 1.8-1.5 1.8-0.5-0.1-0.8-0.4-1.1-0.8q1.2-3.6 2.5-7.1c2.8-5.8 1.9-10.6-2.3-15.8-8.7-10.6-16.7-21.8-24.9-32.7-2.5-3.4-1.9-9.4 2.1-11.5z"/>
			<path id="&lt;Path&gt;" class="s137" d="m747.5 831.3q0.5 0 0.9 0c1.9 0.4 0.8 1.6 0.6 2.4-1.5 4.9-3.3 9.8-4.8 14.8-1.2 1.7-1.2 3.7-1.9 5.6-0.9 2.2-1.6 4.5-2.3 6.8-0.9 2.9-0.8 5.7 1.4 8.1 2.3 2.3 5 2.2 7.9 1.5 0.8-0.2 1.6-0.5 2.5-0.7 0.7-0.2 1.3-0.2 1.7 0.6q0.1 0.2 0.1 0.3c-5.3 3.2-11.2 3.7-14.3 0.4-2.5-2.6-3.2-5.5-2.1-8.8 3.4-10.4 6.9-20.7 10.3-31z"/>
			<path id="&lt;Path&gt;" class="s138" d="m768.5 865.2q0.8 0 1.7 0c-5.4 2.4-11 4.1-16.6 5.5 0 0 0 0.1 0 0.1-0.7-1-0.1-1.7 0.7-2 4.7-1.5 9.1-4.1 14.2-3.6z"/>
			<path id="&lt;Path&gt;" class="s139" d="m511.7 843.7c2 5.8 4.2 11.6 6 17.6 2.2 7-3.3 12.6-10.5 10.7-1.5-0.4-3.1-0.8-4.6-1.2 0 0 0 0 0 0-5.5-2.1-11.1-3.7-16.6-5.7q-0.5 0-1 0c-2.7-2.5-6.4-2.5-9.5-4.1 1.5-2.1 4.1-2.7 5.7-4.6 0.5-1.1 1.2-0.8 2-0.5q7.5 2.5 14.9 5c1.8 0.6 3.6 1 5.4 1 3.9 0.1 6.4-2.6 6.1-6.5-0.3-2.7-1.3-5.1-2.1-7.6-0.3-1-0.7-2.1 0.7-2.6q1.8-0.8 3.5-1.5z"/>
			<path id="&lt;Path&gt;" class="s140" d="m486 865.1c5.7 1.4 11.3 3.2 16.6 5.7-5.6-1.6-11.3-3.2-16.6-5.7z"/>
			<path id="&lt;Path&gt;" class="s91" d="m695.2 765.8c0.5-3.3 2.3-5.9 4.8-8.2 4.4-4.2 8.7-8.5 13.1-12.8 5.3-1.7 10.4-4 15.5-6.2-6.5 7.2-13.8 13.4-20.6 20.2-4.2 4.2-5.9 8.8-4.6 14.6 0.9 3.9 1.4 7.9 2 11.9-1.6 2.7-3.9 4.2-7.2 3.6-1.3-1.7-1.3-3.8-1.7-5.7-0.9-4.7-1.6-9.4-2.4-14.1-0.2-1.3-0.1-2.4 1.1-3.3z"/>
			<path id="&lt;Path&gt;" class="s141" d="m698.9 788.3c2.3-0.7 4.3-2.2 6.5-3q0.8 4 1.7 8.1c0.6 6.7 2.1 13.3 3.2 20 0.5 2.7 0.8 5.5 1.2 8.3-1.6 2.9-4.2 3.4-7.2 3.1-1.6-2.6-1.6-5.7-2.1-8.6q-1.4-6.8-2.2-13.8c-1.2-4.1-1.7-8.4-2.2-12.6-0.1-0.8 0-1.6 1.1-1.5z"/>
			<path id="&lt;Path&gt;" class="s118" d="m782.9 853.4q-1.8 0.5-3.7 1c-0.6-0.1-1.2-0.2-1-1.1 5.1-1.8 10.2-3.8 15.4-5.5 3.7-1.2 6.2 1.6 8.8 3.5 8.9 6.4 17.6 13.1 26.4 19.6 3.2 2.3 6.6 1.9 10.4-1.1-2.1 6.3-7.3 7.9-12.6 4-9.2-6.8-18.5-13.6-27.6-20.5-3.3-2.6-6.6-3.7-10.6-1.8-1.7 0.9-3.7 1.3-5.5 1.9z"/>
			<path id="&lt;Path&gt;" class="s118" d="m417.1 869.8c4.3 3.5 6.8 3.5 11.3 0.2 9.1-6.8 18.3-13.5 27.5-20.4 2.6-2 5.3-2.4 8.3-1.3q7.4 2.6 14.8 5.1c0.6 1.2-0.2 1.4-1.1 1.5-3.6-1.2-7.3-2.2-10.9-3.6-3.5-1.5-6.3-0.6-9.2 1.6-9.3 7-18.7 13.8-28 20.7-1.7 1.3-3.5 2.3-5.8 2.2-3.5-0.1-5.6-1.9-6.9-6z"/>
			<path id="&lt;Path&gt;" class="s142" d="m477.9 854.9q0.6-0.7 1.1-1.5c6.6 2.2 13.1 4.4 19.6 6.7 2.7 1 5 0.1 6.9-1.7 1.9-1.9 2.8-4.1 1.8-6.9-2.6-7.7-5.1-15.5-7.7-23.2q1-0.5 2-1.1c2.4 5.9 3.9 12.2 6.6 18 0.9 3 1.9 6 2.7 9 1.5 6.1-3.4 10.8-9.4 8.9-5.7-1.8-11.3-3.9-16.9-5.8-1.1-0.4-2.3-0.6-3.4-0.9q-1.7-0.8-3.3-1.5z"/>
			<path id="&lt;Path&gt;" class="s142" d="m701.3 802.2c0.9 7.4 2.4 14.6 3.7 21.9 0.7 0.5 1.5 1 1.6 1.9 0.6 3.4 1.4 6.8 0.5 10.3-1.8 7.3-10 11.5-17.1 8.7-4.2-1.7-8-4.1-12-6.2-0.7-0.4-1.2-1-1.2-1.9-6.7-3.9-13.8-7.4-20.7-11.1-1.2-0.6-2.5-1.1-3.4-2.1 0.9-0.5 1.6-1.1 2.1-2 9.8 5.1 19.7 10.1 29.4 15.4 5.6 3.1 13.8 1 16.2-6.1 1.1-3.1 0.5-6.3-0.1-9.5q-1.5-9.2-3.1-18.4c0-0.3-0.2-0.6-0.4-1 1.5-1.8 3-1 4.5 0.1z"/>
			<path id="&lt;Path&gt;" class="s143" d="m676.8 836.9c4.2 1.5 7.7 4 11.6 5.9 4.6 2.3 9 2.3 13.3-0.6 4-2.8 4.8-7 4.3-11.5-0.3-2.2-0.7-4.4-1-6.6q3.3-1.2 6.5-2.4c1.7 7.7 3 15.5 4.1 23.4 0.9 5.4-1.2 10.1-5.7 13.1-4.5 3-9.4 3.1-14.3 0.5-10.2-5.3-20.5-10.5-30.5-16.2 4-1.6 8.1-3.1 11.7-5.6z"/>
			<path id="&lt;Path&gt;" class="s144" d="m701.3 802.2c-1.5 0.2-3 0.2-4.5-0.1q-1.7-10.2-3.3-20.4-1.2-6.9-2.3-13.9c1.2-1 2.3-2 4-2 0.7 7.6 2.4 15 3.7 22.5 0.6 4.6 1.3 9.3 2.4 13.9z"/>
			<path id="&lt;Path&gt;" class="s145" d="m778.2 853.3q0.5 0.6 1 1.1c-5.4 2.6-11.3 3.9-16.8 6.2-2.7 3.6-10.2 5.3-14.1 3.3-3.4-1.8-5.2-5.5-4.5-9.2 0.4-1.6 0.7-3.1 1.4-4.6q0.5-0.8 0.7-1.7 2.9-10.2 6.8-20.1c0.3-0.9 0.7-1.9 1.9-1.1q1 0.6 2 1.1-3.9 11.7-7.8 23.5c-0.8 2.5 0.1 4.7 1.8 6.5 1.8 1.8 4 2.8 6.7 1.9 6.5-2.2 12.9-4.4 19.4-6.6 0.4-0.1 1-0.2 1.5-0.3z"/>
			<path id="&lt;Path&gt;" class="s146" d="m754.6 827.2c-3.2 7.5-5.2 15.4-8.2 23-2.3 0.7-2.8 0.5-3.5-1.9 1.5-5.8 3.8-11.3 5.5-17q2.1-5.9 4.1-11.8 1.8 1 3.6 2-0.7 2.8-1.5 5.7z"/>
			<path id="&lt;Path&gt;" class="s147" d="m742.9 848.3q1.8 1 3.5 1.9c-0.4 1.5-0.8 2.9-1.1 4.4-1.2 5.6 3.4 10.1 8.9 8.7 2.7-0.8 5.4-1.8 8.2-2.7 1.1 2.8 3.9 3.2 6.1 4.6q-5.8 2-11.7 4.1c-1.1 0.4-2.3 0.6-3.2 1.5-2.7 0.3-5.1 1.7-8 1.6-4.9-0.3-8.7-4.9-7.4-9.8 1.2-4.9 2.9-9.6 4.7-14.3z"/>
		</g>
		<text id="score
" style="transform: matrix(2,0,0,2,396.29,536.092)" >
			<tspan x="0" y="0" class="t148">score
</tspan>
		</text>
		<text id="score
" style="transform: matrix(2,0,0,2,396.29,528.447)" >
			<tspan x="0" y="0" class="t149">score
</tspan>
		</text>
	</g>
</svg>